<?xml version="1.0" encoding="us-ascii" standalone="no"?><svg xmlns="http://www.w3.org/2000/svg" xmlns:xlink="http://www.w3.org/1999/xlink" contentStyleType="text/css" height="791px" preserveAspectRatio="none" style="width:1330px;height:791px;background:#FFFFFF;" version="1.1" viewBox="0 0 1330 791" width="1330px" zoomAndPan="magnify"><defs><filter height="1" id="b8jqk39lap29h0" width="1" x="0" y="0"><feFlood flood-color="#FFC0CB" result="flood"/><feComposite in="SourceGraphic" in2="flood" operator="over"/></filter><filter height="1" id="b8jqk39lap29h1" width="1" x="0" y="0"><feFlood flood-color="#90EE90" result="flood"/><feComposite in="SourceGraphic" in2="flood" operator="over"/></filter><filter height="1" id="b8jqk39lap29h2" width="1" x="0" y="0"><feFlood flood-color="#FFFF00" result="flood"/><feComposite in="SourceGraphic" in2="flood" operator="over"/></filter></defs><g><text fill="#000000" font-family="sans-serif" font-size="14" font-weight="bold" lengthAdjust="spacing" textLength="465" x="425.5" y="25.1074">Keyple - keyple-card-calypso-crypto-pki-java-lib - 0.1.+ (2024-02-23)</text><rect fill="#DDDDDD" height="103.1055" id="_legend" rx="7.5" ry="7.5" style="stroke:#000000;stroke-width:1.0;" width="241" x="537.5" y="51.6211"/><text fill="#000000" font-family="sans-serif" font-size="14" lengthAdjust="spacing" text-decoration="underline" textLength="88" x="542.5" y="71.7285">Colors legend</text><text fill="#000000" font-family="sans-serif" font-size="14" lengthAdjust="spacing" textLength="4" x="634.5" y="71.7285">:</text><ellipse cx="548" cy="86.3633" fill="#000000" rx="2.5" ry="2.5" style="stroke:#000000;stroke-width:0.0;"/><text fill="#000000" font-family="sans-serif" font-size="14" lengthAdjust="spacing" text-decoration="underline" textLength="148" x="554.5" y="90.3496">External API references</text><text fill="#000000" font-family="sans-serif" font-size="14" lengthAdjust="spacing" textLength="4" x="706.5" y="90.3496">:</text><rect fill="#000000" height="3.5" style="stroke:#000000;stroke-width:0.0;" width="3.5" x="551.5" y="102.4844"/><text fill="#000000" filter="url(#b8jqk39lap29h0)" font-family="sans-serif" font-size="14" font-weight="bold" lengthAdjust="spacing" textLength="175" x="558.5" y="108.9707">Keypop Calypso Card API</text><rect fill="#000000" height="3.5" style="stroke:#000000;stroke-width:0.0;" width="3.5" x="551.5" y="121.1055"/><text fill="#000000" filter="url(#b8jqk39lap29h1)" font-family="sans-serif" font-size="14" font-weight="bold" lengthAdjust="spacing" textLength="215" x="558.5" y="127.5918">Keypop Calypso Certificate API</text><rect fill="#000000" height="3.5" style="stroke:#000000;stroke-width:0.0;" width="3.5" x="551.5" y="139.7266"/><text fill="#000000" filter="url(#b8jqk39lap29h2)" font-family="sans-serif" font-size="14" lengthAdjust="spacing" textLength="79" x="558.5" y="146.2129">java.security</text><!--cluster pki--><g id="cluster_pki"><path d="M8.5,173.7402 L303.5,173.7402 A3.75,3.75 0 0 1 306,176.2402 L313,198.3613 L1320.5,198.3613 A2.5,2.5 0 0 1 1323,200.8613 L1323,782.2402 A2.5,2.5 0 0 1 1320.5,784.7402 L8.5,784.7402 A2.5,2.5 0 0 1 6,782.2402 L6,176.2402 A2.5,2.5 0 0 1 8.5,173.7402 " fill="#F8F9F9" style="stroke:#000000;stroke-width:1.5;"/><line style="stroke:#000000;stroke-width:1.5;" x1="6" x2="313" y1="198.3613" y2="198.3613"/><text fill="#000000" font-family="sans-serif" font-size="14" font-weight="bold" lengthAdjust="spacing" textLength="294" x="10" y="190.8477">org.eclipse.keyple.card.calypso.crypto.pki</text></g><!--cluster spi--><g id="cluster_spi"><path d="M406.5,640.7402 L428.5,640.7402 A3.75,3.75 0 0 1 431,643.2402 L438,665.3613 L1296.5,665.3613 A2.5,2.5 0 0 1 1299,667.8613 L1299,758.2402 A2.5,2.5 0 0 1 1296.5,760.7402 L406.5,760.7402 A2.5,2.5 0 0 1 404,758.2402 L404,643.2402 A2.5,2.5 0 0 1 406.5,640.7402 " fill="#F2F3F4" style="stroke:#000000;stroke-width:1.5;"/><line style="stroke:#000000;stroke-width:1.5;" x1="404" x2="438" y1="665.3613" y2="665.3613"/><text fill="#000000" font-family="sans-serif" font-size="14" font-weight="bold" lengthAdjust="spacing" textLength="21" x="408" y="657.8477">spi</text></g><!--class PkiExtensionService--><g id="elem_PkiExtensionService"><rect codeLine="62" fill="#E9F7EF" height="364.5586" id="PkiExtensionService" rx="2.5" ry="2.5" style="stroke:#27AE60;stroke-width:2.0;" width="944" x="22" y="210.7402"/><ellipse cx="403.75" cy="226.7402" fill="#ADD1B2" rx="11" ry="11" style="stroke:#181818;stroke-width:1.0;"/><path d="M406.5156,222.6152 Q406.6719,222.3965 406.8594,222.2871 Q407.0469,222.1777 407.2656,222.1777 Q407.6406,222.1777 407.875,222.4434 Q408.1094,222.6934 408.1094,223.3027 L408.1094,224.7559 Q408.1094,225.3652 407.875,225.6309 Q407.6406,225.8965 407.2656,225.8965 Q406.9219,225.8965 406.7188,225.6934 Q406.5156,225.5059 406.4063,224.9902 Q406.3594,224.6309 406.1719,224.4434 Q405.8438,224.0684 405.2344,223.8496 Q404.625,223.6309 404,223.6309 Q403.2344,223.6309 402.5938,223.959 Q401.9688,224.2871 401.4688,225.0371 Q400.9844,225.7871 400.9844,226.8184 L400.9844,227.9121 Q400.9844,229.1465 401.875,229.9746 Q402.7656,230.7871 404.3594,230.7871 Q405.2969,230.7871 405.9531,230.5371 Q406.3438,230.3809 406.7656,229.9434 Q407.0313,229.6777 407.1719,229.5996 Q407.3281,229.5215 407.5313,229.5215 Q407.8594,229.5215 408.1094,229.7871 Q408.375,230.0371 408.375,230.3809 Q408.375,230.7246 408.0313,231.1309 Q407.5313,231.709 406.7344,232.0371 Q405.6563,232.4902 404.3594,232.4902 Q402.8438,232.4902 401.6406,231.8652 Q400.6563,231.3652 399.9688,230.3027 Q399.2813,229.2246 399.2813,227.9434 L399.2813,226.7871 Q399.2813,225.459 399.8906,224.3184 Q400.5156,223.1621 401.6094,222.5527 Q402.7031,221.9277 403.9375,221.9277 Q404.6719,221.9277 405.3125,222.0996 Q405.9688,222.2559 406.5156,222.6152 Z " fill="#000000"/><ellipse cx="429.25" cy="226.2402" fill="#84BE84" rx="3" ry="3" style="stroke:#038048;stroke-width:1.0;"/><text fill="#000000" font-family="sans-serif" font-size="14" font-weight="bold" lengthAdjust="spacing" textLength="30" x="435.25" y="232.5371">final</text><text fill="#000000" font-family="sans-serif" font-size="14" lengthAdjust="spacing" textLength="127" x="469.25" y="232.5371">PkiExtensionService</text><line style="stroke:#27AE60;stroke-width:2.0;" x1="23" x2="965" y1="242.7402" y2="242.7402"/><line style="stroke:#27AE60;stroke-width:1.0;" x1="23" x2="965" y1="250.7402" y2="250.7402"/><ellipse cx="33" cy="265.5508" fill="#84BE84" rx="3" ry="3" style="stroke:#038048;stroke-width:1.0;"/><text fill="#000000" font-family="sans-serif" font-size="14" lengthAdjust="spacing" text-decoration="underline" textLength="218" x="42" y="269.8477">PkiExtensionService getInstance ()</text><text fill="#000000" font-family="sans-serif" font-size="14" lengthAdjust="spacing" textLength="4" x="42" y="288.4688">&#160;</text><ellipse cx="33" cy="302.793" fill="#84BE84" rx="3" ry="3" style="stroke:#038048;stroke-width:1.0;"/><text fill="#000000" filter="url(#b8jqk39lap29h0)" font-family="sans-serif" font-size="14" lengthAdjust="spacing" textLength="324" x="42" y="307.0898">AsymmetricCryptoCardTransactionManagerFactory</text><text fill="#000000" font-family="sans-serif" font-size="14" lengthAdjust="spacing" textLength="378" x="370" y="307.0898">createAsymmetricCryptoCardTransactionManagerFactory ()</text><text fill="#000000" font-family="sans-serif" font-size="14" lengthAdjust="spacing" textLength="4" x="42" y="325.7109">&#160;</text><ellipse cx="33" cy="340.0352" fill="#84BE84" rx="3" ry="3" style="stroke:#038048;stroke-width:1.0;"/><text fill="#000000" filter="url(#b8jqk39lap29h0)" font-family="sans-serif" font-size="14" lengthAdjust="spacing" textLength="88" x="42" y="344.332">PcaCertificate</text><text fill="#000000" font-family="sans-serif" font-size="14" lengthAdjust="spacing" textLength="331" x="134" y="344.332">createPcaCertificate (byte[] pcaPublicKeyReference,</text><text fill="#000000" filter="url(#b8jqk39lap29h2)" font-family="sans-serif" font-size="14" lengthAdjust="spacing" textLength="62" x="469" y="344.332">PublicKey</text><text fill="#000000" font-family="sans-serif" font-size="14" lengthAdjust="spacing" textLength="90" x="535" y="344.332">pcaPublicKey)</text><ellipse cx="33" cy="358.6563" fill="#84BE84" rx="3" ry="3" style="stroke:#038048;stroke-width:1.0;"/><text fill="#000000" filter="url(#b8jqk39lap29h0)" font-family="sans-serif" font-size="14" lengthAdjust="spacing" textLength="88" x="42" y="362.9531">PcaCertificate</text><text fill="#000000" font-family="sans-serif" font-size="14" lengthAdjust="spacing" textLength="517" x="134" y="362.9531">createPcaCertificate (byte[] pcaPublicKeyReference, byte[] pcaPublicKeyModulus)</text><text fill="#000000" font-family="sans-serif" font-size="14" lengthAdjust="spacing" textLength="4" x="42" y="381.5742">&#160;</text><ellipse cx="33" cy="395.8984" fill="#84BE84" rx="3" ry="3" style="stroke:#038048;stroke-width:1.0;"/><text fill="#000000" filter="url(#b8jqk39lap29h0)" font-family="sans-serif" font-size="14" lengthAdjust="spacing" textLength="82" x="42" y="400.1953">CaCertificate</text><text fill="#000000" font-family="sans-serif" font-size="14" lengthAdjust="spacing" textLength="254" x="128" y="400.1953">createCaCertificate (byte[] caCertificate)</text><ellipse cx="33" cy="414.5195" fill="#84BE84" rx="3" ry="3" style="stroke:#038048;stroke-width:1.0;"/><text fill="#000000" filter="url(#b8jqk39lap29h0)" font-family="sans-serif" font-size="14" lengthAdjust="spacing" textLength="82" x="42" y="418.8164">CaCertificate</text><text fill="#000000" font-family="sans-serif" font-size="14" lengthAdjust="spacing" textLength="559" x="128" y="418.8164">createCaCertificate (byte[] caCertificate, CaCertificateValidatorSpi caCertificateValidator)</text><text fill="#000000" font-family="sans-serif" font-size="14" lengthAdjust="spacing" textLength="4" x="42" y="437.4375">&#160;</text><ellipse cx="33" cy="451.7617" fill="#84BE84" rx="3" ry="3" style="stroke:#038048;stroke-width:1.0;"/><text fill="#000000" filter="url(#b8jqk39lap29h0)" font-family="sans-serif" font-size="14" lengthAdjust="spacing" textLength="124" x="42" y="456.0586">CaCertificateParser</text><text fill="#000000" font-family="sans-serif" font-size="14" lengthAdjust="spacing" textLength="407" x="170" y="456.0586">createCaCertificateParser (CaCertificateType caCertificateType)</text><ellipse cx="33" cy="470.3828" fill="#84BE84" rx="3" ry="3" style="stroke:#038048;stroke-width:1.0;"/><text fill="#000000" filter="url(#b8jqk39lap29h0)" font-family="sans-serif" font-size="14" lengthAdjust="spacing" textLength="124" x="42" y="474.6797">CaCertificateParser</text><text fill="#000000" font-family="sans-serif" font-size="14" lengthAdjust="spacing" textLength="712" x="170" y="474.6797">createCaCertificateParser (CaCertificateType caCertificateType, CaCertificateValidatorSpi caCertificateValidator)</text><text fill="#000000" font-family="sans-serif" font-size="14" lengthAdjust="spacing" textLength="4" x="42" y="493.3008">&#160;</text><ellipse cx="33" cy="507.625" fill="#84BE84" rx="3" ry="3" style="stroke:#038048;stroke-width:1.0;"/><text fill="#000000" filter="url(#b8jqk39lap29h0)" font-family="sans-serif" font-size="14" lengthAdjust="spacing" textLength="137" x="42" y="511.9219">CardCertificateParser</text><text fill="#000000" font-family="sans-serif" font-size="14" lengthAdjust="spacing" textLength="446" x="183" y="511.9219">createCardCertificateParser (CardCertificateType cardCertificateType)</text><ellipse cx="33" cy="526.2461" fill="#84BE84" rx="3" ry="3" style="stroke:#038048;stroke-width:1.0;"/><text fill="#000000" filter="url(#b8jqk39lap29h0)" font-family="sans-serif" font-size="14" lengthAdjust="spacing" textLength="137" x="42" y="530.543">CardCertificateParser</text><text fill="#000000" font-family="sans-serif" font-size="14" lengthAdjust="spacing" textLength="777" x="183" y="530.543">createCardCertificateParser (CardCertificateType cardCertificateType, CardCertificateValidatorSpi cardCertificateValidator)</text><text fill="#000000" font-family="sans-serif" font-size="14" lengthAdjust="spacing" textLength="4" x="42" y="549.1641">&#160;</text><ellipse cx="33" cy="563.4883" fill="#84BE84" rx="3" ry="3" style="stroke:#038048;stroke-width:1.0;"/><text fill="#000000" filter="url(#b8jqk39lap29h1)" font-family="sans-serif" font-size="14" lengthAdjust="spacing" textLength="183" x="42" y="567.7852">CalypsoCertificateApiFactory</text><text fill="#000000" font-family="sans-serif" font-size="14" lengthAdjust="spacing" textLength="217" x="229" y="567.7852">getCalypsoCertificateApiFactory ()</text></g><!--class CaCertificateType--><g id="elem_CaCertificateType"><rect codeLine="82" fill="#E9F7EF" height="66.6211" id="CaCertificateType" rx="2.5" ry="2.5" style="stroke:#27AE60;stroke-width:2.0;" width="157" x="22.5" y="677.7402"/><ellipse cx="37.5" cy="693.7402" fill="#EB937F" rx="11" ry="11" style="stroke:#181818;stroke-width:1.0;"/><path d="M36.3594,694.5371 L36.3594,697.0371 L40.6875,697.0371 L40.6875,696.1152 Q40.6875,695.5059 40.9219,695.2402 Q41.1719,694.9746 41.5469,694.9746 Q41.9219,694.9746 42.1563,695.2402 Q42.3906,695.5059 42.3906,696.1152 L42.3906,698.7402 L34.3906,698.7402 Q33.7656,698.7402 33.5,698.5059 Q33.25,698.2715 33.25,697.8809 Q33.25,697.5059 33.5156,697.2715 Q33.7813,697.0371 34.3906,697.0371 L34.6563,697.0371 L34.6563,690.3809 L34.3906,690.3809 Q33.7656,690.3809 33.5,690.1465 Q33.25,689.9121 33.25,689.5215 Q33.25,689.1465 33.5,688.9121 Q33.7656,688.6777 34.3906,688.6777 L42.0156,688.6777 L42.0156,691.2715 Q42.0156,691.8809 41.7813,692.1465 Q41.5625,692.3965 41.1719,692.3965 Q40.7969,692.3965 40.5625,692.1465 Q40.3281,691.8809 40.3281,691.2715 L40.3281,690.3809 L36.3594,690.3809 L36.3594,692.834 L37.8438,692.834 Q37.8438,692.1777 37.9688,691.9902 Q38.2344,691.584 38.7031,691.584 Q39.0781,691.584 39.3125,691.8496 Q39.5469,692.0996 39.5469,692.709 L39.5469,694.6777 Q39.5469,695.2246 39.4219,695.4121 Q39.1563,695.8027 38.7031,695.8027 Q38.2344,695.8027 37.9688,695.3965 Q37.8438,695.209 37.8438,694.5371 L36.3594,694.5371 Z " fill="#000000"/><ellipse cx="56.5" cy="693.2402" fill="#84BE84" rx="3" ry="3" style="stroke:#038048;stroke-width:1.0;"/><text fill="#000000" font-family="sans-serif" font-size="14" lengthAdjust="spacing" textLength="114" x="62.5" y="699.5371">CaCertificateType</text><line style="stroke:#27AE60;stroke-width:2.0;" x1="23.5" x2="178.5" y1="709.7402" y2="709.7402"/><text fill="#000000" font-family="sans-serif" font-size="14" lengthAdjust="spacing" textLength="90" x="28.5" y="728.8477">CALYPSO_V1</text><line style="stroke:#27AE60;stroke-width:2.0;" x1="23.5" x2="178.5" y1="736.3613" y2="736.3613"/></g><!--class CardCertificateType--><g id="elem_CardCertificateType"><rect codeLine="85" fill="#E9F7EF" height="66.6211" id="CardCertificateType" rx="2.5" ry="2.5" style="stroke:#27AE60;stroke-width:2.0;" width="170" x="215" y="677.7402"/><ellipse cx="230" cy="693.7402" fill="#EB937F" rx="11" ry="11" style="stroke:#181818;stroke-width:1.0;"/><path d="M228.8594,694.5371 L228.8594,697.0371 L233.1875,697.0371 L233.1875,696.1152 Q233.1875,695.5059 233.4219,695.2402 Q233.6719,694.9746 234.0469,694.9746 Q234.4219,694.9746 234.6563,695.2402 Q234.8906,695.5059 234.8906,696.1152 L234.8906,698.7402 L226.8906,698.7402 Q226.2656,698.7402 226,698.5059 Q225.75,698.2715 225.75,697.8809 Q225.75,697.5059 226.0156,697.2715 Q226.2813,697.0371 226.8906,697.0371 L227.1563,697.0371 L227.1563,690.3809 L226.8906,690.3809 Q226.2656,690.3809 226,690.1465 Q225.75,689.9121 225.75,689.5215 Q225.75,689.1465 226,688.9121 Q226.2656,688.6777 226.8906,688.6777 L234.5156,688.6777 L234.5156,691.2715 Q234.5156,691.8809 234.2813,692.1465 Q234.0625,692.3965 233.6719,692.3965 Q233.2969,692.3965 233.0625,692.1465 Q232.8281,691.8809 232.8281,691.2715 L232.8281,690.3809 L228.8594,690.3809 L228.8594,692.834 L230.3438,692.834 Q230.3438,692.1777 230.4688,691.9902 Q230.7344,691.584 231.2031,691.584 Q231.5781,691.584 231.8125,691.8496 Q232.0469,692.0996 232.0469,692.709 L232.0469,694.6777 Q232.0469,695.2246 231.9219,695.4121 Q231.6563,695.8027 231.2031,695.8027 Q230.7344,695.8027 230.4688,695.3965 Q230.3438,695.209 230.3438,694.5371 L228.8594,694.5371 Z " fill="#000000"/><ellipse cx="249" cy="693.2402" fill="#84BE84" rx="3" ry="3" style="stroke:#038048;stroke-width:1.0;"/><text fill="#000000" font-family="sans-serif" font-size="14" lengthAdjust="spacing" textLength="127" x="255" y="699.5371">CardCertificateType</text><line style="stroke:#27AE60;stroke-width:2.0;" x1="216" x2="384" y1="709.7402" y2="709.7402"/><text fill="#000000" font-family="sans-serif" font-size="14" lengthAdjust="spacing" textLength="90" x="221" y="728.8477">CALYPSO_V1</text><line style="stroke:#27AE60;stroke-width:2.0;" x1="216" x2="384" y1="736.3613" y2="736.3613"/></g><!--class CardIdentifier--><g id="elem_CardIdentifier"><rect codeLine="88" fill="#FEFECE" height="85.2422" id="CardIdentifier" rx="2.5" ry="2.5" style="stroke:#D4AC0D;stroke-width:2.0;" width="184" x="1001" y="350.7402"/><ellipse cx="1040.75" cy="366.7402" fill="#B4A7E5" rx="11" ry="11" style="stroke:#181818;stroke-width:1.0;"/><path d="M1041.7031,363.3809 L1041.7031,370.0371 L1043.4219,370.0371 Q1044.0313,370.0371 1044.2969,370.2715 Q1044.5625,370.5059 1044.5625,370.8965 Q1044.5625,371.2715 1044.2969,371.5059 Q1044.0313,371.7402 1043.4219,371.7402 L1038.2813,371.7402 Q1037.6719,371.7402 1037.4063,371.5059 Q1037.1406,371.2715 1037.1406,370.8809 Q1037.1406,370.5059 1037.4063,370.2715 Q1037.6719,370.0371 1038.2813,370.0371 L1040,370.0371 L1040,363.3809 L1038.2813,363.3809 Q1037.6719,363.3809 1037.4063,363.1465 Q1037.1406,362.9121 1037.1406,362.5215 Q1037.1406,362.1465 1037.4063,361.9121 Q1037.6719,361.6777 1038.2813,361.6777 L1043.4219,361.6777 Q1044.0313,361.6777 1044.2969,361.9121 Q1044.5625,362.1465 1044.5625,362.5215 Q1044.5625,362.9121 1044.2969,363.1465 Q1044.0313,363.3809 1043.4219,363.3809 L1041.7031,363.3809 Z " fill="#000000"/><ellipse cx="1065.25" cy="366.2402" fill="#84BE84" rx="3" ry="3" style="stroke:#038048;stroke-width:1.0;"/><text fill="#000000" font-family="sans-serif" font-size="14" font-style="italic" lengthAdjust="spacing" textLength="86" x="1071.25" y="372.5371">CardIdentifier</text><line style="stroke:#D4AC0D;stroke-width:2.0;" x1="1002" x2="1184" y1="382.7402" y2="382.7402"/><line style="stroke:#D4AC0D;stroke-width:2.0;" x1="1002" x2="1184" y1="390.7402" y2="390.7402"/><ellipse cx="1012" cy="405.5508" fill="#84BE84" rx="3" ry="3" style="stroke:#038048;stroke-width:1.0;"/><text fill="#000000" font-family="sans-serif" font-size="14" lengthAdjust="spacing" textLength="93" x="1021" y="409.8477">byte[] getAid ()</text><ellipse cx="1012" cy="424.1719" fill="#84BE84" rx="3" ry="3" style="stroke:#038048;stroke-width:1.0;"/><text fill="#000000" font-family="sans-serif" font-size="14" lengthAdjust="spacing" textLength="158" x="1021" y="428.4688">byte[] getSerialNumber ()</text></g><!--class CaCertificateValidatorSpi--><g id="elem_CaCertificateValidatorSpi"><rect codeLine="93" fill="#FDEDEC" height="66.6211" id="CaCertificateValidatorSpi" rx="2.5" ry="2.5" style="stroke:#E74C3C;stroke-width:2.0;" width="318" x="420" y="677.7402"/><ellipse cx="490.25" cy="693.7402" fill="#B4A7E5" rx="11" ry="11" style="stroke:#181818;stroke-width:1.0;"/><path d="M491.2031,690.3809 L491.2031,697.0371 L492.9219,697.0371 Q493.5313,697.0371 493.7969,697.2715 Q494.0625,697.5059 494.0625,697.8965 Q494.0625,698.2715 493.7969,698.5059 Q493.5313,698.7402 492.9219,698.7402 L487.7813,698.7402 Q487.1719,698.7402 486.9063,698.5059 Q486.6406,698.2715 486.6406,697.8809 Q486.6406,697.5059 486.9063,697.2715 Q487.1719,697.0371 487.7813,697.0371 L489.5,697.0371 L489.5,690.3809 L487.7813,690.3809 Q487.1719,690.3809 486.9063,690.1465 Q486.6406,689.9121 486.6406,689.5215 Q486.6406,689.1465 486.9063,688.9121 Q487.1719,688.6777 487.7813,688.6777 L492.9219,688.6777 Q493.5313,688.6777 493.7969,688.9121 Q494.0625,689.1465 494.0625,689.5215 Q494.0625,689.9121 493.7969,690.1465 Q493.5313,690.3809 492.9219,690.3809 L491.2031,690.3809 Z " fill="#000000"/><ellipse cx="515.75" cy="693.2402" fill="#84BE84" rx="3" ry="3" style="stroke:#038048;stroke-width:1.0;"/><text fill="#000000" font-family="sans-serif" font-size="14" font-style="italic" lengthAdjust="spacing" textLength="158" x="521.75" y="699.5371">CaCertificateValidatorSpi</text><line style="stroke:#E74C3C;stroke-width:2.0;" x1="421" x2="737" y1="709.7402" y2="709.7402"/><line style="stroke:#E74C3C;stroke-width:2.0;" x1="421" x2="737" y1="717.7402" y2="717.7402"/><ellipse cx="431" cy="732.5508" fill="#84BE84" rx="3" ry="3" style="stroke:#038048;stroke-width:1.0;"/><text fill="#000000" font-family="sans-serif" font-size="14" lengthAdjust="spacing" textLength="292" x="440" y="736.8477">boolean isCertificateValid (byte[] caCertificate)</text></g><!--class CardCertificateValidatorSpi--><g id="elem_CardCertificateValidatorSpi"><rect codeLine="96" fill="#FDEDEC" height="66.6211" id="CardCertificateValidatorSpi" rx="2.5" ry="2.5" style="stroke:#E74C3C;stroke-width:2.0;" width="510" x="773" y="677.7402"/><ellipse cx="932.75" cy="693.7402" fill="#B4A7E5" rx="11" ry="11" style="stroke:#181818;stroke-width:1.0;"/><path d="M933.7031,690.3809 L933.7031,697.0371 L935.4219,697.0371 Q936.0313,697.0371 936.2969,697.2715 Q936.5625,697.5059 936.5625,697.8965 Q936.5625,698.2715 936.2969,698.5059 Q936.0313,698.7402 935.4219,698.7402 L930.2813,698.7402 Q929.6719,698.7402 929.4063,698.5059 Q929.1406,698.2715 929.1406,697.8809 Q929.1406,697.5059 929.4063,697.2715 Q929.6719,697.0371 930.2813,697.0371 L932,697.0371 L932,690.3809 L930.2813,690.3809 Q929.6719,690.3809 929.4063,690.1465 Q929.1406,689.9121 929.1406,689.5215 Q929.1406,689.1465 929.4063,688.9121 Q929.6719,688.6777 930.2813,688.6777 L935.4219,688.6777 Q936.0313,688.6777 936.2969,688.9121 Q936.5625,689.1465 936.5625,689.5215 Q936.5625,689.9121 936.2969,690.1465 Q936.0313,690.3809 935.4219,690.3809 L933.7031,690.3809 Z " fill="#000000"/><ellipse cx="958.25" cy="693.2402" fill="#84BE84" rx="3" ry="3" style="stroke:#038048;stroke-width:1.0;"/><text fill="#000000" font-family="sans-serif" font-size="14" font-style="italic" lengthAdjust="spacing" textLength="171" x="964.25" y="699.5371">CardCertificateValidatorSpi</text><line style="stroke:#E74C3C;stroke-width:2.0;" x1="774" x2="1282" y1="709.7402" y2="709.7402"/><line style="stroke:#E74C3C;stroke-width:2.0;" x1="774" x2="1282" y1="717.7402" y2="717.7402"/><ellipse cx="784" cy="732.5508" fill="#84BE84" rx="3" ry="3" style="stroke:#038048;stroke-width:1.0;"/><text fill="#000000" font-family="sans-serif" font-size="14" lengthAdjust="spacing" textLength="484" x="793" y="736.8477">boolean isCertificateValid (byte[] cardCertificate, CardIdentifier cardIdentifier)</text></g><!--link PkiExtensionService to CaCertificateType--><g id="link_PkiExtensionService_CaCertificateType"><path codeLine="104" d="M267.739,575.8352 C243.848,595.0392 219.921,614.2852 197,632.7402 C178.814,647.3822 163.3788,659.8364 146.2878,673.6394 " fill="none" id="PkiExtensionService-to-CaCertificateType" style="stroke:#27AE60;stroke-width:2.0;stroke-dasharray:7.0,7.0;"/><polygon fill="#27AE60" points="141.62,677.4092,151.1349,674.8664,145.5098,674.2677,146.1085,668.6426,141.62,677.4092" style="stroke:#27AE60;stroke-width:2.0;"/><polygon fill="#000000" points="231.1057,618.5218,239.9938,615.1376,236.3072,610.5596,231.1057,618.5218" style="stroke:#000000;stroke-width:1.0;"/><text fill="#000000" font-family="sans-serif" font-size="13" lengthAdjust="spacing" textLength="21" x="244" y="620.7686">use</text></g><!--link PkiExtensionService to CardCertificateType--><g id="link_PkiExtensionService_CardCertificateType"><path codeLine="105" d="M382.555,575.7692 C358.488,614.9712 338.7742,647.083 323.2402,672.385 " fill="none" id="PkiExtensionService-to-CardCertificateType" style="stroke:#27AE60;stroke-width:2.0;stroke-dasharray:7.0,7.0;"/><polygon fill="#27AE60" points="320.101,677.4982,328.2187,671.9212,322.717,673.2372,321.401,667.7356,320.101,677.4982" style="stroke:#27AE60;stroke-width:2.0;"/><polygon fill="#000000" points="364.384,619.6468,371.621,613.4761,366.6118,610.4008,364.384,619.6468" style="stroke:#000000;stroke-width:1.0;"/><text fill="#000000" font-family="sans-serif" font-size="13" lengthAdjust="spacing" textLength="21" x="376" y="620.7686">use</text></g><!--link PkiExtensionService to CaCertificateValidatorSpi--><g id="link_PkiExtensionService_CaCertificateValidatorSpi"><path codeLine="106" d="M542.829,575.7692 C553.374,614.9712 561.8285,646.4022 568.6345,671.7042 " fill="none" id="PkiExtensionService-to-CaCertificateValidatorSpi" style="stroke:#27AE60;stroke-width:2.0;stroke-dasharray:7.0,7.0;"/><polygon fill="#27AE60" points="570.193,677.4982,571.7179,667.7681,568.8942,672.6699,563.9925,669.8462,570.193,677.4982" style="stroke:#27AE60;stroke-width:2.0;"/><polygon fill="#000000" points="559.2988,620.2141,559.7873,610.7161,554.1112,612.2429,559.2988,620.2141" style="stroke:#000000;stroke-width:1.0;"/><text fill="#000000" font-family="sans-serif" font-size="13" lengthAdjust="spacing" textLength="21" x="567" y="620.7686">use</text></g><!--link PkiExtensionService to CardCertificateValidatorSpi--><g id="link_PkiExtensionService_CardCertificateValidatorSpi"><path codeLine="107" d="M800.762,575.7692 C867.007,614.9712 924.7483,649.1406 967.5063,674.4426 " fill="none" id="PkiExtensionService-to-CardCertificateValidatorSpi" style="stroke:#27AE60;stroke-width:2.0;stroke-dasharray:7.0,7.0;"/><polygon fill="#27AE60" points="972.67,677.4982,966.9616,669.4724,968.367,674.9519,962.8875,676.3573,972.67,677.4982" style="stroke:#27AE60;stroke-width:2.0;"/><polygon fill="#000000" points="879.303,617.9321,873.0155,610.7964,870.0221,615.8549,879.303,617.9321" style="stroke:#000000;stroke-width:1.0;"/><text fill="#000000" font-family="sans-serif" font-size="13" lengthAdjust="spacing" textLength="21" x="884" y="620.7686">use</text></g><!--reverse link CardIdentifier to CardCertificateValidatorSpi--><g id="link_CardIdentifier_CardCertificateValidatorSpi"><path codeLine="109" d="M1083.2311,441.7532 C1070.1311,505.4392 1046.59,619.8452 1034.71,677.6332 " fill="none" id="CardIdentifier-backto-CardCertificateValidatorSpi" style="stroke:#27AE60;stroke-width:2.0;stroke-dasharray:7.0,7.0;"/><polygon fill="#27AE60" points="1084.44,435.8762,1078.7087,443.8858,1083.4326,440.7737,1086.5447,445.4976,1084.44,435.8762" style="stroke:#27AE60;stroke-width:2.0;"/><polygon fill="#000000" points="1055.0074,610.4883,1050.3063,618.7557,1056.0636,619.94,1055.0074,610.4883" style="stroke:#000000;stroke-width:1.0;"/><text fill="#000000" font-family="sans-serif" font-size="13" lengthAdjust="spacing" textLength="21" x="1063" y="620.7686">use</text></g><!--SRC=[nLTjRzf84FxEhvXBFpGXiPC0AKsK8Xc_zAAcAIgqKbHLqM9lO0zZMxlhf5QL_twpVWcsCP1xwHqVmCm-ypmpi-DPMpBfqnRWvmDD8f-21elqGdC9z_3BJo8HQYvF8XbgqO9fVv07elbiYiWJ_LG_XFtEIQUddNIqJlUWHGCFPChPUWtlti7aT_kZZHVurmnZdyPS01CYfW8y2XSmbp8I5yV7SxdqtT0FkHjwLEXkk3o-vyUIJ7rAOit3S3Bl1XDU2ZOBjCWdyhZrcqVlMK31l7l_sRuz1UUjS-wSrymTS3fEr-dLp5smp-o-NKVtmEfRGykgcS_0D4p7wjJCRs1ecLspNp9VNzryW6xl_AqrB5c_Z6tez0txpOcgbQR1M2O-raNEYGGl35vBU0pv0XwPd4D07-61Si720C9xm5m36IzzT6k91GiYmiaIXAISXZA9g34CkKUvgIeAhunpoxISHk1L1JZi6Ntxh15eLXajwtJOQGJQ5Q0zFE-YT9gVVMEfU4jUfa-4oF2JENCN0HK2ohG6v-5ZUGcPRgdlXuzhBCHTp7WO1rwkxDYERThDOZd4wXdcYOMKdwctW-_oabDlC41QoxPiSmljCzBkzx0FMdE6ZLuOLsL2rL7CyKRRAHobi5IxPvjEVwls2lpMxlKCgv1_jbSYcFhnRdq5IlCPEcVESAjw0SrxFTVEhHNbzvpIOAVqJA5IxNEdRpjRjP-n-JsLYnVckdho4l4arJQmZ-nTsYcqOtRjix9qKbNEPgBvwMPYtqpIgUZJMJeomoWTmdTtAQE0p7vt1nUflOqhzWya2eWFnkWAEBr7ri2bOeLfm-KKaxY8MB0OjDjge8SHcDa8nr_kATTs-_9OmGPL9v_DvZ8hrhehvPBTCvT8keKXIU_BWJeVT47Tc3EP542LOvPIgnMXXSmex8LyfbFNPv6WUdRewEhGqVD3HyyE7HqFdJqW0l0NVgQIXwxQ0TXhjt6K4XyZ62sOAa-WvkEOyWVcqjIdmLxgYOnDVN0i5PU7FuKaahbFZSupAgy2163bOV-WjV8gbTuGoN999MUkcMQWAZ_X9134bKZraGIOFdVmNyYB2e7BAPRtBxbk363aajAMLHMgQx0_JIJzzXqYbupYgSzStFhFHMyTLNVs6L0mbfqEVd4a3QiVGo_sOx6X2EPcPRDHk1BEmI_WF88Aw2lncKTm8ySHgmAVLrwIseXmGVcMO380x5UC4nn7LL5bEVXlvVx5Wd1lPumD41LbnPp7kMOx-7zaZw06h9MeUMszIANXdi_qafyHiTeimY6t3QRcZY9_oeOn3U8bhEzsqvWrZUlRqVZJtTVJ1eBrYhoSWWLuDjuJ7CgAvygZWIB2IgyS3_DR4fCpc5VaK5l1CS-8VnClfsgNocaMfvQ8M9bq9RotiPVJasXpfnVFXYlMBAWmn1UT0D-Mwewx9jRJXl0sTb8UuEPE-oSXLbYFwllZLlxMStXgFQbd9aE8q6L4dO2YrMewbdLzqD22hxANh0k81ON15iVrrdknwwQI_JtjRHIjRLWzZdAsKd7h1EdJvxLn- -dBf7Wbn_xuWLql9Gjce7t39rTq_wx1DPqHDncJvHV9_DnpFBczpjxbYvj1FPAzAjwqVpwLxRg8djSwQkrF]--></g></svg>