<?xml version="1.0" encoding="us-ascii" standalone="no"?><svg xmlns="http://www.w3.org/2000/svg" xmlns:xlink="http://www.w3.org/1999/xlink" contentStyleType="text/css" height="754px" preserveAspectRatio="none" style="width:1381px;height:754px;background:#FFFFFF;" version="1.1" viewBox="0 0 1381 754" width="1381px" zoomAndPan="magnify"><defs><filter height="1" id="b1r3y4u212ib1q0" width="1" x="0" y="0"><feFlood flood-color="#FFC0CB" result="flood"/><feComposite in="SourceGraphic" in2="flood" operator="over"/></filter><filter height="1" id="b1r3y4u212ib1q1" width="1" x="0" y="0"><feFlood flood-color="#90EE90" result="flood"/><feComposite in="SourceGraphic" in2="flood" operator="over"/></filter></defs><g><text fill="#000000" font-family="sans-serif" font-size="14" font-weight="bold" lengthAdjust="spacing" textLength="465" x="451" y="25.1074">Keyple - keyple-card-calypso-crypto-pki-java-lib - 0.1.+ (2024-02-13)</text><rect fill="#DDDDDD" height="84.4844" id="_legend" rx="7.5" ry="7.5" style="stroke:#000000;stroke-width:1.0;" width="241" x="563" y="51.6211"/><text fill="#000000" font-family="sans-serif" font-size="14" lengthAdjust="spacing" text-decoration="underline" textLength="88" x="568" y="71.7285">Colors legend</text><text fill="#000000" font-family="sans-serif" font-size="14" lengthAdjust="spacing" textLength="4" x="660" y="71.7285">:</text><ellipse cx="573.5" cy="86.3633" fill="#000000" rx="2.5" ry="2.5" style="stroke:#000000;stroke-width:0.0;"/><text fill="#000000" font-family="sans-serif" font-size="14" lengthAdjust="spacing" text-decoration="underline" textLength="148" x="580" y="90.3496">External API references</text><text fill="#000000" font-family="sans-serif" font-size="14" lengthAdjust="spacing" textLength="4" x="732" y="90.3496">:</text><rect fill="#000000" height="3.5" style="stroke:#000000;stroke-width:0.0;" width="3.5" x="577" y="102.4844"/><text fill="#000000" filter="url(#b1r3y4u212ib1q0)" font-family="sans-serif" font-size="14" font-weight="bold" lengthAdjust="spacing" textLength="175" x="584" y="108.9707">Keypop Calypso Card API</text><rect fill="#000000" height="3.5" style="stroke:#000000;stroke-width:0.0;" width="3.5" x="577" y="121.1055"/><text fill="#000000" filter="url(#b1r3y4u212ib1q1)" font-family="sans-serif" font-size="14" font-weight="bold" lengthAdjust="spacing" textLength="215" x="584" y="127.5918">Keypop Calypso Certificate API</text><!--cluster pki--><g id="cluster_pki"><path d="M8.5,155.1191 L303.5,155.1191 A3.75,3.75 0 0 1 306,157.6191 L313,179.7402 L1371.5,179.7402 A2.5,2.5 0 0 1 1374,182.2402 L1374,744.6191 A2.5,2.5 0 0 1 1371.5,747.1191 L8.5,747.1191 A2.5,2.5 0 0 1 6,744.6191 L6,157.6191 A2.5,2.5 0 0 1 8.5,155.1191 " fill="#F8F9F9" style="stroke:#000000;stroke-width:1.5;"/><line style="stroke:#000000;stroke-width:1.5;" x1="6" x2="313" y1="179.7402" y2="179.7402"/><text fill="#000000" font-family="sans-serif" font-size="14" font-weight="bold" lengthAdjust="spacing" textLength="294" x="10" y="172.2266">org.eclipse.keyple.card.calypso.crypto.pki</text></g><!--cluster spi--><g id="cluster_spi"><path d="M406.5,603.1191 L428.5,603.1191 A3.75,3.75 0 0 1 431,605.6191 L438,627.7402 L1347.5,627.7402 A2.5,2.5 0 0 1 1350,630.2402 L1350,720.6191 A2.5,2.5 0 0 1 1347.5,723.1191 L406.5,723.1191 A2.5,2.5 0 0 1 404,720.6191 L404,605.6191 A2.5,2.5 0 0 1 406.5,603.1191 " fill="#F2F3F4" style="stroke:#000000;stroke-width:1.5;"/><line style="stroke:#000000;stroke-width:1.5;" x1="404" x2="438" y1="627.7402" y2="627.7402"/><text fill="#000000" font-family="sans-serif" font-size="14" font-weight="bold" lengthAdjust="spacing" textLength="21" x="408" y="620.2266">spi</text></g><!--class PkiExtensionService--><g id="elem_PkiExtensionService"><rect codeLine="61" fill="#E9F7EF" height="345.9375" id="PkiExtensionService" rx="2.5" ry="2.5" style="stroke:#27AE60;stroke-width:2.0;" width="913" x="84.5" y="192.1191"/><ellipse cx="450.75" cy="208.1191" fill="#ADD1B2" rx="11" ry="11" style="stroke:#181818;stroke-width:1.0;"/><path d="M453.5156,203.9941 Q453.6719,203.7754 453.8594,203.666 Q454.0469,203.5566 454.2656,203.5566 Q454.6406,203.5566 454.875,203.8223 Q455.1094,204.0723 455.1094,204.6816 L455.1094,206.1348 Q455.1094,206.7441 454.875,207.0098 Q454.6406,207.2754 454.2656,207.2754 Q453.9219,207.2754 453.7188,207.0723 Q453.5156,206.8848 453.4063,206.3691 Q453.3594,206.0098 453.1719,205.8223 Q452.8438,205.4473 452.2344,205.2285 Q451.625,205.0098 451,205.0098 Q450.2344,205.0098 449.5938,205.3379 Q448.9688,205.666 448.4688,206.416 Q447.9844,207.166 447.9844,208.1973 L447.9844,209.291 Q447.9844,210.5254 448.875,211.3535 Q449.7656,212.166 451.3594,212.166 Q452.2969,212.166 452.9531,211.916 Q453.3438,211.7598 453.7656,211.3223 Q454.0313,211.0566 454.1719,210.9785 Q454.3281,210.9004 454.5313,210.9004 Q454.8594,210.9004 455.1094,211.166 Q455.375,211.416 455.375,211.7598 Q455.375,212.1035 455.0313,212.5098 Q454.5313,213.0879 453.7344,213.416 Q452.6563,213.8691 451.3594,213.8691 Q449.8438,213.8691 448.6406,213.2441 Q447.6563,212.7441 446.9688,211.6816 Q446.2813,210.6035 446.2813,209.3223 L446.2813,208.166 Q446.2813,206.8379 446.8906,205.6973 Q447.5156,204.541 448.6094,203.9316 Q449.7031,203.3066 450.9375,203.3066 Q451.6719,203.3066 452.3125,203.4785 Q452.9688,203.6348 453.5156,203.9941 Z " fill="#000000"/><ellipse cx="476.25" cy="207.6191" fill="#84BE84" rx="3" ry="3" style="stroke:#038048;stroke-width:1.0;"/><text fill="#000000" font-family="sans-serif" font-size="14" font-weight="bold" lengthAdjust="spacing" textLength="30" x="482.25" y="213.916">final</text><text fill="#000000" font-family="sans-serif" font-size="14" lengthAdjust="spacing" textLength="127" x="516.25" y="213.916">PkiExtensionService</text><line style="stroke:#27AE60;stroke-width:2.0;" x1="85.5" x2="996.5" y1="224.1191" y2="224.1191"/><line style="stroke:#27AE60;stroke-width:1.0;" x1="85.5" x2="996.5" y1="232.1191" y2="232.1191"/><ellipse cx="95.5" cy="246.9297" fill="#84BE84" rx="3" ry="3" style="stroke:#038048;stroke-width:1.0;"/><text fill="#000000" font-family="sans-serif" font-size="14" lengthAdjust="spacing" text-decoration="underline" textLength="218" x="104.5" y="251.2266">PkiExtensionService getInstance ()</text><text fill="#000000" font-family="sans-serif" font-size="14" lengthAdjust="spacing" textLength="4" x="104.5" y="269.8477">&#160;</text><ellipse cx="95.5" cy="284.1719" fill="#84BE84" rx="3" ry="3" style="stroke:#038048;stroke-width:1.0;"/><text fill="#000000" filter="url(#b1r3y4u212ib1q0)" font-family="sans-serif" font-size="14" lengthAdjust="spacing" textLength="324" x="104.5" y="288.4688">AsymmetricCryptoCardTransactionManagerFactory</text><text fill="#000000" font-family="sans-serif" font-size="14" lengthAdjust="spacing" textLength="378" x="432.5" y="288.4688">createAsymmetricCryptoCardTransactionManagerFactory ()</text><text fill="#000000" font-family="sans-serif" font-size="14" lengthAdjust="spacing" textLength="4" x="104.5" y="307.0898">&#160;</text><ellipse cx="95.5" cy="321.4141" fill="#84BE84" rx="3" ry="3" style="stroke:#038048;stroke-width:1.0;"/><text fill="#000000" filter="url(#b1r3y4u212ib1q0)" font-family="sans-serif" font-size="14" lengthAdjust="spacing" textLength="88" x="104.5" y="325.7109">PcaCertificate</text><text fill="#000000" font-family="sans-serif" font-size="14" lengthAdjust="spacing" textLength="154" x="196.5" y="325.7109">createPcaCertificate (...)</text><text fill="#000000" font-family="sans-serif" font-size="14" lengthAdjust="spacing" textLength="4" x="104.5" y="344.332">&#160;</text><ellipse cx="95.5" cy="358.6563" fill="#84BE84" rx="3" ry="3" style="stroke:#038048;stroke-width:1.0;"/><text fill="#000000" filter="url(#b1r3y4u212ib1q0)" font-family="sans-serif" font-size="14" lengthAdjust="spacing" textLength="82" x="104.5" y="362.9531">CaCertificate</text><text fill="#000000" font-family="sans-serif" font-size="14" lengthAdjust="spacing" textLength="148" x="190.5" y="362.9531">createCaCertificate (...)</text><ellipse cx="95.5" cy="377.2773" fill="#84BE84" rx="3" ry="3" style="stroke:#038048;stroke-width:1.0;"/><text fill="#000000" filter="url(#b1r3y4u212ib1q0)" font-family="sans-serif" font-size="14" lengthAdjust="spacing" textLength="82" x="104.5" y="381.5742">CaCertificate</text><text fill="#000000" font-family="sans-serif" font-size="14" lengthAdjust="spacing" textLength="453" x="190.5" y="381.5742">createCaCertificate (..., CaCertificateValidatorSpi caCertificateValidator)</text><text fill="#000000" font-family="sans-serif" font-size="14" lengthAdjust="spacing" textLength="4" x="104.5" y="400.1953">&#160;</text><ellipse cx="95.5" cy="414.5195" fill="#84BE84" rx="3" ry="3" style="stroke:#038048;stroke-width:1.0;"/><text fill="#000000" filter="url(#b1r3y4u212ib1q0)" font-family="sans-serif" font-size="14" lengthAdjust="spacing" textLength="124" x="104.5" y="418.8164">CaCertificateParser</text><text fill="#000000" font-family="sans-serif" font-size="14" lengthAdjust="spacing" textLength="389" x="232.5" y="418.8164">createCaCertificateParser (CaCertificateType certificateType)</text><ellipse cx="95.5" cy="433.1406" fill="#84BE84" rx="3" ry="3" style="stroke:#038048;stroke-width:1.0;"/><text fill="#000000" filter="url(#b1r3y4u212ib1q0)" font-family="sans-serif" font-size="14" lengthAdjust="spacing" textLength="124" x="104.5" y="437.4375">CaCertificateParser</text><text fill="#000000" font-family="sans-serif" font-size="14" lengthAdjust="spacing" textLength="694" x="232.5" y="437.4375">createCaCertificateParser (CaCertificateType certificateType, CaCertificateValidatorSpi caCertificateValidator)</text><text fill="#000000" font-family="sans-serif" font-size="14" lengthAdjust="spacing" textLength="4" x="104.5" y="456.0586">&#160;</text><ellipse cx="95.5" cy="470.3828" fill="#84BE84" rx="3" ry="3" style="stroke:#038048;stroke-width:1.0;"/><text fill="#000000" filter="url(#b1r3y4u212ib1q0)" font-family="sans-serif" font-size="14" lengthAdjust="spacing" textLength="137" x="104.5" y="474.6797">CardCertificateParser</text><text fill="#000000" font-family="sans-serif" font-size="14" lengthAdjust="spacing" textLength="415" x="245.5" y="474.6797">createCardCertificateParser (CardCertificateType certificateType)</text><ellipse cx="95.5" cy="489.0039" fill="#84BE84" rx="3" ry="3" style="stroke:#038048;stroke-width:1.0;"/><text fill="#000000" filter="url(#b1r3y4u212ib1q0)" font-family="sans-serif" font-size="14" lengthAdjust="spacing" textLength="137" x="104.5" y="493.3008">CardCertificateParser</text><text fill="#000000" font-family="sans-serif" font-size="14" lengthAdjust="spacing" textLength="746" x="245.5" y="493.3008">createCardCertificateParser (CardCertificateType certificateType, CardCertificateValidatorSpi cardCertificateValidator)</text><text fill="#000000" font-family="sans-serif" font-size="14" lengthAdjust="spacing" textLength="4" x="104.5" y="511.9219">&#160;</text><ellipse cx="95.5" cy="526.2461" fill="#84BE84" rx="3" ry="3" style="stroke:#038048;stroke-width:1.0;"/><text fill="#000000" filter="url(#b1r3y4u212ib1q1)" font-family="sans-serif" font-size="14" lengthAdjust="spacing" textLength="183" x="104.5" y="530.543">CalypsoCertificateApiFactory</text><text fill="#000000" font-family="sans-serif" font-size="14" lengthAdjust="spacing" textLength="217" x="291.5" y="530.543">getCalypsoCertificateApiFactory ()</text></g><!--class CaCertificateType--><g id="elem_CaCertificateType"><rect codeLine="80" fill="#E9F7EF" height="66.6211" id="CaCertificateType" rx="2.5" ry="2.5" style="stroke:#27AE60;stroke-width:2.0;" width="157" x="22.5" y="640.1191"/><ellipse cx="37.5" cy="656.1191" fill="#EB937F" rx="11" ry="11" style="stroke:#181818;stroke-width:1.0;"/><path d="M36.3594,656.916 L36.3594,659.416 L40.6875,659.416 L40.6875,658.4941 Q40.6875,657.8848 40.9219,657.6191 Q41.1719,657.3535 41.5469,657.3535 Q41.9219,657.3535 42.1563,657.6191 Q42.3906,657.8848 42.3906,658.4941 L42.3906,661.1191 L34.3906,661.1191 Q33.7656,661.1191 33.5,660.8848 Q33.25,660.6504 33.25,660.2598 Q33.25,659.8848 33.5156,659.6504 Q33.7813,659.416 34.3906,659.416 L34.6563,659.416 L34.6563,652.7598 L34.3906,652.7598 Q33.7656,652.7598 33.5,652.5254 Q33.25,652.291 33.25,651.9004 Q33.25,651.5254 33.5,651.291 Q33.7656,651.0566 34.3906,651.0566 L42.0156,651.0566 L42.0156,653.6504 Q42.0156,654.2598 41.7813,654.5254 Q41.5625,654.7754 41.1719,654.7754 Q40.7969,654.7754 40.5625,654.5254 Q40.3281,654.2598 40.3281,653.6504 L40.3281,652.7598 L36.3594,652.7598 L36.3594,655.2129 L37.8438,655.2129 Q37.8438,654.5566 37.9688,654.3691 Q38.2344,653.9629 38.7031,653.9629 Q39.0781,653.9629 39.3125,654.2285 Q39.5469,654.4785 39.5469,655.0879 L39.5469,657.0566 Q39.5469,657.6035 39.4219,657.791 Q39.1563,658.1816 38.7031,658.1816 Q38.2344,658.1816 37.9688,657.7754 Q37.8438,657.5879 37.8438,656.916 L36.3594,656.916 Z " fill="#000000"/><ellipse cx="56.5" cy="655.6191" fill="#84BE84" rx="3" ry="3" style="stroke:#038048;stroke-width:1.0;"/><text fill="#000000" font-family="sans-serif" font-size="14" lengthAdjust="spacing" textLength="114" x="62.5" y="661.916">CaCertificateType</text><line style="stroke:#27AE60;stroke-width:2.0;" x1="23.5" x2="178.5" y1="672.1191" y2="672.1191"/><text fill="#000000" font-family="sans-serif" font-size="14" lengthAdjust="spacing" textLength="90" x="28.5" y="691.2266">CALYPSO_V1</text><line style="stroke:#27AE60;stroke-width:2.0;" x1="23.5" x2="178.5" y1="698.7402" y2="698.7402"/></g><!--class CardCertificateType--><g id="elem_CardCertificateType"><rect codeLine="83" fill="#E9F7EF" height="66.6211" id="CardCertificateType" rx="2.5" ry="2.5" style="stroke:#27AE60;stroke-width:2.0;" width="170" x="215" y="640.1191"/><ellipse cx="230" cy="656.1191" fill="#EB937F" rx="11" ry="11" style="stroke:#181818;stroke-width:1.0;"/><path d="M228.8594,656.916 L228.8594,659.416 L233.1875,659.416 L233.1875,658.4941 Q233.1875,657.8848 233.4219,657.6191 Q233.6719,657.3535 234.0469,657.3535 Q234.4219,657.3535 234.6563,657.6191 Q234.8906,657.8848 234.8906,658.4941 L234.8906,661.1191 L226.8906,661.1191 Q226.2656,661.1191 226,660.8848 Q225.75,660.6504 225.75,660.2598 Q225.75,659.8848 226.0156,659.6504 Q226.2813,659.416 226.8906,659.416 L227.1563,659.416 L227.1563,652.7598 L226.8906,652.7598 Q226.2656,652.7598 226,652.5254 Q225.75,652.291 225.75,651.9004 Q225.75,651.5254 226,651.291 Q226.2656,651.0566 226.8906,651.0566 L234.5156,651.0566 L234.5156,653.6504 Q234.5156,654.2598 234.2813,654.5254 Q234.0625,654.7754 233.6719,654.7754 Q233.2969,654.7754 233.0625,654.5254 Q232.8281,654.2598 232.8281,653.6504 L232.8281,652.7598 L228.8594,652.7598 L228.8594,655.2129 L230.3438,655.2129 Q230.3438,654.5566 230.4688,654.3691 Q230.7344,653.9629 231.2031,653.9629 Q231.5781,653.9629 231.8125,654.2285 Q232.0469,654.4785 232.0469,655.0879 L232.0469,657.0566 Q232.0469,657.6035 231.9219,657.791 Q231.6563,658.1816 231.2031,658.1816 Q230.7344,658.1816 230.4688,657.7754 Q230.3438,657.5879 230.3438,656.916 L228.8594,656.916 Z " fill="#000000"/><ellipse cx="249" cy="655.6191" fill="#84BE84" rx="3" ry="3" style="stroke:#038048;stroke-width:1.0;"/><text fill="#000000" font-family="sans-serif" font-size="14" lengthAdjust="spacing" textLength="127" x="255" y="661.916">CardCertificateType</text><line style="stroke:#27AE60;stroke-width:2.0;" x1="216" x2="384" y1="672.1191" y2="672.1191"/><text fill="#000000" font-family="sans-serif" font-size="14" lengthAdjust="spacing" textLength="90" x="221" y="691.2266">CALYPSO_V1</text><line style="stroke:#27AE60;stroke-width:2.0;" x1="216" x2="384" y1="698.7402" y2="698.7402"/></g><!--class CaCertificateValidatorSpi--><g id="elem_CaCertificateValidatorSpi"><rect codeLine="87" fill="#FDEDEC" height="66.6211" id="CaCertificateValidatorSpi" rx="2.5" ry="2.5" style="stroke:#E74C3C;stroke-width:2.0;" width="365" x="420.5" y="640.1191"/><ellipse cx="514.25" cy="656.1191" fill="#B4A7E5" rx="11" ry="11" style="stroke:#181818;stroke-width:1.0;"/><path d="M515.2031,652.7598 L515.2031,659.416 L516.9219,659.416 Q517.5313,659.416 517.7969,659.6504 Q518.0625,659.8848 518.0625,660.2754 Q518.0625,660.6504 517.7969,660.8848 Q517.5313,661.1191 516.9219,661.1191 L511.7813,661.1191 Q511.1719,661.1191 510.9063,660.8848 Q510.6406,660.6504 510.6406,660.2598 Q510.6406,659.8848 510.9063,659.6504 Q511.1719,659.416 511.7813,659.416 L513.5,659.416 L513.5,652.7598 L511.7813,652.7598 Q511.1719,652.7598 510.9063,652.5254 Q510.6406,652.291 510.6406,651.9004 Q510.6406,651.5254 510.9063,651.291 Q511.1719,651.0566 511.7813,651.0566 L516.9219,651.0566 Q517.5313,651.0566 517.7969,651.291 Q518.0625,651.5254 518.0625,651.9004 Q518.0625,652.291 517.7969,652.5254 Q517.5313,652.7598 516.9219,652.7598 L515.2031,652.7598 Z " fill="#000000"/><ellipse cx="539.75" cy="655.6191" fill="#84BE84" rx="3" ry="3" style="stroke:#038048;stroke-width:1.0;"/><text fill="#000000" font-family="sans-serif" font-size="14" font-style="italic" lengthAdjust="spacing" textLength="158" x="545.75" y="661.916">CaCertificateValidatorSpi</text><line style="stroke:#E74C3C;stroke-width:2.0;" x1="421.5" x2="784.5" y1="672.1191" y2="672.1191"/><line style="stroke:#E74C3C;stroke-width:2.0;" x1="421.5" x2="784.5" y1="680.1191" y2="680.1191"/><ellipse cx="431.5" cy="694.9297" fill="#84BE84" rx="3" ry="3" style="stroke:#038048;stroke-width:1.0;"/><text fill="#000000" font-family="sans-serif" font-size="14" lengthAdjust="spacing" textLength="169" x="440.5" y="699.2266">boolean isCertificateValid (</text><text fill="#000000" filter="url(#b1r3y4u212ib1q0)" font-family="sans-serif" font-size="14" lengthAdjust="spacing" textLength="82" x="609.5" y="699.2266">CaCertificate</text><text fill="#000000" font-family="sans-serif" font-size="14" lengthAdjust="spacing" textLength="84" x="695.5" y="699.2266">caCertificate)</text></g><!--class CardCertificateValidatorSpi--><g id="elem_CardCertificateValidatorSpi"><rect codeLine="90" fill="#FDEDEC" height="66.6211" id="CardCertificateValidatorSpi" rx="2.5" ry="2.5" style="stroke:#E74C3C;stroke-width:2.0;" width="513" x="820.5" y="640.1191"/><ellipse cx="981.75" cy="656.1191" fill="#B4A7E5" rx="11" ry="11" style="stroke:#181818;stroke-width:1.0;"/><path d="M982.7031,652.7598 L982.7031,659.416 L984.4219,659.416 Q985.0313,659.416 985.2969,659.6504 Q985.5625,659.8848 985.5625,660.2754 Q985.5625,660.6504 985.2969,660.8848 Q985.0313,661.1191 984.4219,661.1191 L979.2813,661.1191 Q978.6719,661.1191 978.4063,660.8848 Q978.1406,660.6504 978.1406,660.2598 Q978.1406,659.8848 978.4063,659.6504 Q978.6719,659.416 979.2813,659.416 L981,659.416 L981,652.7598 L979.2813,652.7598 Q978.6719,652.7598 978.4063,652.5254 Q978.1406,652.291 978.1406,651.9004 Q978.1406,651.5254 978.4063,651.291 Q978.6719,651.0566 979.2813,651.0566 L984.4219,651.0566 Q985.0313,651.0566 985.2969,651.291 Q985.5625,651.5254 985.5625,651.9004 Q985.5625,652.291 985.2969,652.5254 Q985.0313,652.7598 984.4219,652.7598 L982.7031,652.7598 Z " fill="#000000"/><ellipse cx="1007.25" cy="655.6191" fill="#84BE84" rx="3" ry="3" style="stroke:#038048;stroke-width:1.0;"/><text fill="#000000" font-family="sans-serif" font-size="14" font-style="italic" lengthAdjust="spacing" textLength="171" x="1013.25" y="661.916">CardCertificateValidatorSpi</text><line style="stroke:#E74C3C;stroke-width:2.0;" x1="821.5" x2="1332.5" y1="672.1191" y2="672.1191"/><line style="stroke:#E74C3C;stroke-width:2.0;" x1="821.5" x2="1332.5" y1="680.1191" y2="680.1191"/><ellipse cx="831.5" cy="694.9297" fill="#84BE84" rx="3" ry="3" style="stroke:#038048;stroke-width:1.0;"/><text fill="#000000" font-family="sans-serif" font-size="14" lengthAdjust="spacing" textLength="169" x="840.5" y="699.2266">boolean isCertificateValid (</text><text fill="#000000" filter="url(#b1r3y4u212ib1q0)" font-family="sans-serif" font-size="14" lengthAdjust="spacing" textLength="95" x="1009.5" y="699.2266">CardCertificate</text><text fill="#000000" font-family="sans-serif" font-size="14" lengthAdjust="spacing" textLength="96" x="1108.5" y="699.2266">cardCertificate,</text><text fill="#000000" filter="url(#b1r3y4u212ib1q0)" font-family="sans-serif" font-size="14" lengthAdjust="spacing" textLength="82" x="1208.5" y="699.2266">CalypsoCard</text><text fill="#000000" font-family="sans-serif" font-size="14" lengthAdjust="spacing" textLength="33" x="1294.5" y="699.2266">card)</text></g><!--link PkiExtensionService to CaCertificateType--><g id="link_PkiExtensionService_CaCertificateType"><path codeLine="98" d="M276.808,538.3981 C249.614,557.1981 222.592,576.3321 197,595.1191 C177.661,609.3161 161.5048,622.115 144.2318,636.308 " fill="none" id="PkiExtensionService-to-CaCertificateType" style="stroke:#27AE60;stroke-width:2.0;stroke-dasharray:7.0,7.0;"/><polygon fill="#27AE60" points="139.596,640.1171,149.0891,637.4939,143.4591,636.9428,144.0102,631.3129,139.596,640.1171" style="stroke:#27AE60;stroke-width:2.0;"/><polygon fill="#000000" points="234.9779,580.735,243.9998,577.7257,240.508,572.9975,234.9779,580.735" style="stroke:#000000;stroke-width:1.0;"/><text fill="#000000" font-family="sans-serif" font-size="13" lengthAdjust="spacing" textLength="21" x="248" y="583.1475">use</text></g><!--link PkiExtensionService to CardCertificateType--><g id="link_PkiExtensionService_CardCertificateType"><path codeLine="99" d="M405.706,538.1841 C375.02,577.2101 349.3405,609.8675 329.3765,635.2585 " fill="none" id="PkiExtensionService-to-CardCertificateType" style="stroke:#27AE60;stroke-width:2.0;stroke-dasharray:7.0,7.0;"/><polygon fill="#27AE60" points="325.668,639.9751,334.3752,635.3725,328.7584,636.0446,328.0864,630.4278,325.668,639.9751" style="stroke:#27AE60;stroke-width:2.0;"/><polygon fill="#000000" points="378.9095,581.6951,386.8106,576.4014,382.19,572.7683,378.9095,581.6951" style="stroke:#000000;stroke-width:1.0;"/><text fill="#000000" font-family="sans-serif" font-size="13" lengthAdjust="spacing" textLength="21" x="391" y="583.1475">use</text></g><!--link PkiExtensionService to CaCertificateValidatorSpi--><g id="link_PkiExtensionService_CaCertificateValidatorSpi"><path codeLine="100" d="M575.806,538.1841 C583.7,577.2101 590.0714,608.7032 595.2074,634.0942 " fill="none" id="PkiExtensionService-to-CaCertificateValidatorSpi" style="stroke:#27AE60;stroke-width:2.0;stroke-dasharray:7.0,7.0;"/><polygon fill="#27AE60" points="596.397,639.9751,598.5332,630.3608,595.4057,635.0744,590.6921,631.9468,596.397,639.9751" style="stroke:#27AE60;stroke-width:2.0;"/><polygon fill="#000000" points="589.9914,582.6654,591.0786,573.2172,585.3174,574.3826,589.9914,582.6654" style="stroke:#000000;stroke-width:1.0;"/><text fill="#000000" font-family="sans-serif" font-size="13" lengthAdjust="spacing" textLength="21" x="598" y="583.1475">use</text></g><!--link PkiExtensionService to CardCertificateValidatorSpi--><g id="link_PkiExtensionService_CardCertificateValidatorSpi"><path codeLine="101" d="M841.903,538.1841 C910.152,577.2101 970.3015,611.6056 1014.7015,636.9966 " fill="none" id="PkiExtensionService-to-CardCertificateValidatorSpi" style="stroke:#27AE60;stroke-width:2.0;stroke-dasharray:7.0,7.0;"/><polygon fill="#27AE60" points="1019.91,639.9751,1014.083,632.035,1015.5696,637.493,1010.1116,638.9796,1019.91,639.9751" style="stroke:#27AE60;stroke-width:2.0;"/><polygon fill="#000000" points="927.3405,580.2467,920.9474,573.2054,918.0296,578.3079,927.3405,580.2467" style="stroke:#000000;stroke-width:1.0;"/><text fill="#000000" font-family="sans-serif" font-size="13" lengthAdjust="spacing" textLength="21" x="932" y="583.1475">use</text></g><!--SRC=[lLTjR-8u4FwUNp7NVjYMDg45kfIgYnGIPw_QReiMkb9rEY4tCU0Zs95jsaKL__sS5qe20RgtTvSFa8oVUPxnP3ns55KXCK1VNyWy2WcOC4bkJ1-BGF-4yqXoqnVpI74pcb3pB_oCpP0-QUIPTMwTm57jhDOmpshcUVtO82m0bN0Q7-3J9-Z_ZhuYVQCV7JuBoKn8e5BEY8I0m1MCbOhaLRKwLjFGvo4NFW-8j7m-hGv5LU6daE2P6UXmKkyIaxwLTCJCACIgQlmMa25b19p1vs_eyHoyIw_bjTRCDV1gNjrhh9dhW2vG4wsZ6-0stOxhhfalmB4TpwsjcJz2ntNgJZDdlhsv-mBrHklIxUIi3pq4jQQDFfx5kJ9DwAbvgFEYnbX1mDa71IzSJE25gZ4myWBFH4ZA6V0XwBaoDPk6sisG4yeYBF0Kf2A2S3MFYDtX8Y32YJCAXtRBTLol57XJ07OQTXDTb0AT8gFhddTgfK1K0A9Egwwba_cXEpUED-VbX5ZA5DyVKt_2Y9IGfxM5u2_v8StqICAGlsomO7yo4dp6WapPGnvoKBbO1d4RjdFcQifl9DZ3TtqjID1kQreNkSZPGVk6HCs6hWDZJ7MXBushD6dLxapeXRPNE4fWYNO3ELvpf_OAV8aQ3TjToh_P2n4yXRFz-Z4ecK_7k_0wEzMNqApMC-tCMb3-B0XXUwL7CIhHRdbDvEtKViDcQoeJNvhNrUVl4PydshQk8xHFEu7Md3gwo4lFYyffJtJkx_hehfzqnP2CafR9ewG93mO9euJKFXZ0LMAlw17qGnCn78BTlG51XfgL-KIkC1MuVjAJk8eecxGhbRYXymYSj8NhVn74hfNATJM6jOjE8HsDLPgiJLSY51rI7ojIP8X3JoCrZ4XRy8Z00HSZY_WXZIInqht4YlSIAzjBh7GliVHUSW1OWlw7roIM4pzEB1nKAhf3ub27rftGUDOiRdiz8fwfJnAV4dlkLQTiyQMxpVBsv5KghAY_A7KU4NN3D40d58wEZPLNBgEsd4-dH0dgEyaCueJs1MOI-qfJVSLCJrzu-ecBUPOXy0NHMVifrwq1T7sSUnD5XU8O75cMjON5sKxYb73yCiKf56pVSKW3hEVPYoZufIFl2RoBXIHYXtOAWAE2iQyN8VZ5v-F_K-nVJ8O8zaPO0ebZB9X_9YN_eUGfh87MKbC-jfcSN1lBkbVEpuxeslBKwtuNB5wACVaYxK-4pQQm-OxBEezZtpvsU_U3x-Sb19lPU3V5iilAYEQW9vJflM68TVSws5fWIUVSNdxB8ygADM5-uboVjva-jAyxmj7Ubf0thefgiINkhUy_YtnxVVngx0NcLVG5yoaKNDAYqP0yV7sE2sCHx_csbDodE6xrqZ3AzX_BQfSKrc7waN05CqcWlSDniw3UxRejfVzCUnT5UlYvjH_l7_hBBqBz-d-e7b6AiX6OV-Y3Kq3OdoRSaX7svpqyVL0qp3nx_SVRz5DokGZYeyFXyaFlTP6tMp9w6wl5Oty3]--></g></svg>