<?xml version="1.0" encoding="us-ascii" standalone="no"?><svg xmlns="http://www.w3.org/2000/svg" xmlns:xlink="http://www.w3.org/1999/xlink" contentStyleType="text/css" height="791px" preserveAspectRatio="none" style="width:1438px;height:791px;background:#FFFFFF;" version="1.1" viewBox="0 0 1438 791" width="1438px" zoomAndPan="magnify"><defs><filter height="1" id="buirkgf2w29bc0" width="1" x="0" y="0"><feFlood flood-color="#FFC0CB" result="flood"/><feComposite in="SourceGraphic" in2="flood" operator="over"/></filter><filter height="1" id="buirkgf2w29bc1" width="1" x="0" y="0"><feFlood flood-color="#90EE90" result="flood"/><feComposite in="SourceGraphic" in2="flood" operator="over"/></filter><filter height="1" id="buirkgf2w29bc2" width="1" x="0" y="0"><feFlood flood-color="#FFFF00" result="flood"/><feComposite in="SourceGraphic" in2="flood" operator="over"/></filter></defs><g><text fill="#000000" font-family="sans-serif" font-size="14" font-weight="bold" lengthAdjust="spacing" textLength="465" x="479.5" y="25.1074">Keyple - keyple-card-calypso-crypto-pki-java-lib - 0.1.+ (2024-02-13)</text><rect fill="#DDDDDD" height="103.1055" id="_legend" rx="7.5" ry="7.5" style="stroke:#000000;stroke-width:1.0;" width="241" x="591.5" y="51.6211"/><text fill="#000000" font-family="sans-serif" font-size="14" lengthAdjust="spacing" text-decoration="underline" textLength="88" x="596.5" y="71.7285">Colors legend</text><text fill="#000000" font-family="sans-serif" font-size="14" lengthAdjust="spacing" textLength="4" x="688.5" y="71.7285">:</text><ellipse cx="602" cy="86.3633" fill="#000000" rx="2.5" ry="2.5" style="stroke:#000000;stroke-width:0.0;"/><text fill="#000000" font-family="sans-serif" font-size="14" lengthAdjust="spacing" text-decoration="underline" textLength="148" x="608.5" y="90.3496">External API references</text><text fill="#000000" font-family="sans-serif" font-size="14" lengthAdjust="spacing" textLength="4" x="760.5" y="90.3496">:</text><rect fill="#000000" height="3.5" style="stroke:#000000;stroke-width:0.0;" width="3.5" x="605.5" y="102.4844"/><text fill="#000000" filter="url(#buirkgf2w29bc0)" font-family="sans-serif" font-size="14" font-weight="bold" lengthAdjust="spacing" textLength="175" x="612.5" y="108.9707">Keypop Calypso Card API</text><rect fill="#000000" height="3.5" style="stroke:#000000;stroke-width:0.0;" width="3.5" x="605.5" y="121.1055"/><text fill="#000000" filter="url(#buirkgf2w29bc1)" font-family="sans-serif" font-size="14" font-weight="bold" lengthAdjust="spacing" textLength="215" x="612.5" y="127.5918">Keypop Calypso Certificate API</text><rect fill="#000000" height="3.5" style="stroke:#000000;stroke-width:0.0;" width="3.5" x="605.5" y="139.7266"/><text fill="#000000" filter="url(#buirkgf2w29bc2)" font-family="sans-serif" font-size="14" lengthAdjust="spacing" textLength="79" x="612.5" y="146.2129">java.security</text><!--cluster pki--><g id="cluster_pki"><path d="M8.5,173.7402 L303.5,173.7402 A3.75,3.75 0 0 1 306,176.2402 L313,198.3613 L1428.5,198.3613 A2.5,2.5 0 0 1 1431,200.8613 L1431,782.2402 A2.5,2.5 0 0 1 1428.5,784.7402 L8.5,784.7402 A2.5,2.5 0 0 1 6,782.2402 L6,176.2402 A2.5,2.5 0 0 1 8.5,173.7402 " fill="#F8F9F9" style="stroke:#000000;stroke-width:1.5;"/><line style="stroke:#000000;stroke-width:1.5;" x1="6" x2="313" y1="198.3613" y2="198.3613"/><text fill="#000000" font-family="sans-serif" font-size="14" font-weight="bold" lengthAdjust="spacing" textLength="294" x="10" y="190.8477">org.eclipse.keyple.card.calypso.crypto.pki</text></g><!--cluster spi--><g id="cluster_spi"><path d="M406.5,640.7402 L428.5,640.7402 A3.75,3.75 0 0 1 431,643.2402 L438,665.3613 L1404.5,665.3613 A2.5,2.5 0 0 1 1407,667.8613 L1407,758.2402 A2.5,2.5 0 0 1 1404.5,760.7402 L406.5,760.7402 A2.5,2.5 0 0 1 404,758.2402 L404,643.2402 A2.5,2.5 0 0 1 406.5,640.7402 " fill="#F2F3F4" style="stroke:#000000;stroke-width:1.5;"/><line style="stroke:#000000;stroke-width:1.5;" x1="404" x2="438" y1="665.3613" y2="665.3613"/><text fill="#000000" font-family="sans-serif" font-size="14" font-weight="bold" lengthAdjust="spacing" textLength="21" x="408" y="657.8477">spi</text></g><!--class PkiExtensionService--><g id="elem_PkiExtensionService"><rect codeLine="62" fill="#E9F7EF" height="364.5586" id="PkiExtensionService" rx="2.5" ry="2.5" style="stroke:#27AE60;stroke-width:2.0;" width="913" x="44.5" y="210.7402"/><ellipse cx="410.75" cy="226.7402" fill="#ADD1B2" rx="11" ry="11" style="stroke:#181818;stroke-width:1.0;"/><path d="M413.5156,222.6152 Q413.6719,222.3965 413.8594,222.2871 Q414.0469,222.1777 414.2656,222.1777 Q414.6406,222.1777 414.875,222.4434 Q415.1094,222.6934 415.1094,223.3027 L415.1094,224.7559 Q415.1094,225.3652 414.875,225.6309 Q414.6406,225.8965 414.2656,225.8965 Q413.9219,225.8965 413.7188,225.6934 Q413.5156,225.5059 413.4063,224.9902 Q413.3594,224.6309 413.1719,224.4434 Q412.8438,224.0684 412.2344,223.8496 Q411.625,223.6309 411,223.6309 Q410.2344,223.6309 409.5938,223.959 Q408.9688,224.2871 408.4688,225.0371 Q407.9844,225.7871 407.9844,226.8184 L407.9844,227.9121 Q407.9844,229.1465 408.875,229.9746 Q409.7656,230.7871 411.3594,230.7871 Q412.2969,230.7871 412.9531,230.5371 Q413.3438,230.3809 413.7656,229.9434 Q414.0313,229.6777 414.1719,229.5996 Q414.3281,229.5215 414.5313,229.5215 Q414.8594,229.5215 415.1094,229.7871 Q415.375,230.0371 415.375,230.3809 Q415.375,230.7246 415.0313,231.1309 Q414.5313,231.709 413.7344,232.0371 Q412.6563,232.4902 411.3594,232.4902 Q409.8438,232.4902 408.6406,231.8652 Q407.6563,231.3652 406.9688,230.3027 Q406.2813,229.2246 406.2813,227.9434 L406.2813,226.7871 Q406.2813,225.459 406.8906,224.3184 Q407.5156,223.1621 408.6094,222.5527 Q409.7031,221.9277 410.9375,221.9277 Q411.6719,221.9277 412.3125,222.0996 Q412.9688,222.2559 413.5156,222.6152 Z " fill="#000000"/><ellipse cx="436.25" cy="226.2402" fill="#84BE84" rx="3" ry="3" style="stroke:#038048;stroke-width:1.0;"/><text fill="#000000" font-family="sans-serif" font-size="14" font-weight="bold" lengthAdjust="spacing" textLength="30" x="442.25" y="232.5371">final</text><text fill="#000000" font-family="sans-serif" font-size="14" lengthAdjust="spacing" textLength="127" x="476.25" y="232.5371">PkiExtensionService</text><line style="stroke:#27AE60;stroke-width:2.0;" x1="45.5" x2="956.5" y1="242.7402" y2="242.7402"/><line style="stroke:#27AE60;stroke-width:1.0;" x1="45.5" x2="956.5" y1="250.7402" y2="250.7402"/><ellipse cx="55.5" cy="265.5508" fill="#84BE84" rx="3" ry="3" style="stroke:#038048;stroke-width:1.0;"/><text fill="#000000" font-family="sans-serif" font-size="14" lengthAdjust="spacing" text-decoration="underline" textLength="218" x="64.5" y="269.8477">PkiExtensionService getInstance ()</text><text fill="#000000" font-family="sans-serif" font-size="14" lengthAdjust="spacing" textLength="4" x="64.5" y="288.4688">&#160;</text><ellipse cx="55.5" cy="302.793" fill="#84BE84" rx="3" ry="3" style="stroke:#038048;stroke-width:1.0;"/><text fill="#000000" filter="url(#buirkgf2w29bc0)" font-family="sans-serif" font-size="14" lengthAdjust="spacing" textLength="324" x="64.5" y="307.0898">AsymmetricCryptoCardTransactionManagerFactory</text><text fill="#000000" font-family="sans-serif" font-size="14" lengthAdjust="spacing" textLength="378" x="392.5" y="307.0898">createAsymmetricCryptoCardTransactionManagerFactory ()</text><text fill="#000000" font-family="sans-serif" font-size="14" lengthAdjust="spacing" textLength="4" x="64.5" y="325.7109">&#160;</text><ellipse cx="55.5" cy="340.0352" fill="#84BE84" rx="3" ry="3" style="stroke:#038048;stroke-width:1.0;"/><text fill="#000000" filter="url(#buirkgf2w29bc0)" font-family="sans-serif" font-size="14" lengthAdjust="spacing" textLength="88" x="64.5" y="344.332">PcaCertificate</text><text fill="#000000" font-family="sans-serif" font-size="14" lengthAdjust="spacing" textLength="307" x="156.5" y="344.332">createPcaCertificate (byte[] publicKeyReference,</text><text fill="#000000" filter="url(#buirkgf2w29bc2)" font-family="sans-serif" font-size="14" lengthAdjust="spacing" textLength="62" x="467.5" y="344.332">PublicKey</text><text fill="#000000" font-family="sans-serif" font-size="14" lengthAdjust="spacing" textLength="66" x="533.5" y="344.332">publicKey)</text><ellipse cx="55.5" cy="358.6563" fill="#84BE84" rx="3" ry="3" style="stroke:#038048;stroke-width:1.0;"/><text fill="#000000" filter="url(#buirkgf2w29bc0)" font-family="sans-serif" font-size="14" lengthAdjust="spacing" textLength="88" x="64.5" y="362.9531">PcaCertificate</text><text fill="#000000" font-family="sans-serif" font-size="14" lengthAdjust="spacing" textLength="469" x="156.5" y="362.9531">createPcaCertificate (byte[] publicKeyReference, byte[] publicKeyModulus)</text><text fill="#000000" font-family="sans-serif" font-size="14" lengthAdjust="spacing" textLength="4" x="64.5" y="381.5742">&#160;</text><ellipse cx="55.5" cy="395.8984" fill="#84BE84" rx="3" ry="3" style="stroke:#038048;stroke-width:1.0;"/><text fill="#000000" filter="url(#buirkgf2w29bc0)" font-family="sans-serif" font-size="14" lengthAdjust="spacing" textLength="82" x="64.5" y="400.1953">CaCertificate</text><text fill="#000000" font-family="sans-serif" font-size="14" lengthAdjust="spacing" textLength="233" x="150.5" y="400.1953">createCaCertificate (byte[] rawValue)</text><ellipse cx="55.5" cy="414.5195" fill="#84BE84" rx="3" ry="3" style="stroke:#038048;stroke-width:1.0;"/><text fill="#000000" filter="url(#buirkgf2w29bc0)" font-family="sans-serif" font-size="14" lengthAdjust="spacing" textLength="82" x="64.5" y="418.8164">CaCertificate</text><text fill="#000000" font-family="sans-serif" font-size="14" lengthAdjust="spacing" textLength="538" x="150.5" y="418.8164">createCaCertificate (byte[] rawValue, CaCertificateValidatorSpi caCertificateValidator)</text><text fill="#000000" font-family="sans-serif" font-size="14" lengthAdjust="spacing" textLength="4" x="64.5" y="437.4375">&#160;</text><ellipse cx="55.5" cy="451.7617" fill="#84BE84" rx="3" ry="3" style="stroke:#038048;stroke-width:1.0;"/><text fill="#000000" filter="url(#buirkgf2w29bc0)" font-family="sans-serif" font-size="14" lengthAdjust="spacing" textLength="124" x="64.5" y="456.0586">CaCertificateParser</text><text fill="#000000" font-family="sans-serif" font-size="14" lengthAdjust="spacing" textLength="389" x="192.5" y="456.0586">createCaCertificateParser (CaCertificateType certificateType)</text><ellipse cx="55.5" cy="470.3828" fill="#84BE84" rx="3" ry="3" style="stroke:#038048;stroke-width:1.0;"/><text fill="#000000" filter="url(#buirkgf2w29bc0)" font-family="sans-serif" font-size="14" lengthAdjust="spacing" textLength="124" x="64.5" y="474.6797">CaCertificateParser</text><text fill="#000000" font-family="sans-serif" font-size="14" lengthAdjust="spacing" textLength="694" x="192.5" y="474.6797">createCaCertificateParser (CaCertificateType certificateType, CaCertificateValidatorSpi caCertificateValidator)</text><text fill="#000000" font-family="sans-serif" font-size="14" lengthAdjust="spacing" textLength="4" x="64.5" y="493.3008">&#160;</text><ellipse cx="55.5" cy="507.625" fill="#84BE84" rx="3" ry="3" style="stroke:#038048;stroke-width:1.0;"/><text fill="#000000" filter="url(#buirkgf2w29bc0)" font-family="sans-serif" font-size="14" lengthAdjust="spacing" textLength="137" x="64.5" y="511.9219">CardCertificateParser</text><text fill="#000000" font-family="sans-serif" font-size="14" lengthAdjust="spacing" textLength="415" x="205.5" y="511.9219">createCardCertificateParser (CardCertificateType certificateType)</text><ellipse cx="55.5" cy="526.2461" fill="#84BE84" rx="3" ry="3" style="stroke:#038048;stroke-width:1.0;"/><text fill="#000000" filter="url(#buirkgf2w29bc0)" font-family="sans-serif" font-size="14" lengthAdjust="spacing" textLength="137" x="64.5" y="530.543">CardCertificateParser</text><text fill="#000000" font-family="sans-serif" font-size="14" lengthAdjust="spacing" textLength="746" x="205.5" y="530.543">createCardCertificateParser (CardCertificateType certificateType, CardCertificateValidatorSpi cardCertificateValidator)</text><text fill="#000000" font-family="sans-serif" font-size="14" lengthAdjust="spacing" textLength="4" x="64.5" y="549.1641">&#160;</text><ellipse cx="55.5" cy="563.4883" fill="#84BE84" rx="3" ry="3" style="stroke:#038048;stroke-width:1.0;"/><text fill="#000000" filter="url(#buirkgf2w29bc1)" font-family="sans-serif" font-size="14" lengthAdjust="spacing" textLength="183" x="64.5" y="567.7852">CalypsoCertificateApiFactory</text><text fill="#000000" font-family="sans-serif" font-size="14" lengthAdjust="spacing" textLength="217" x="251.5" y="567.7852">getCalypsoCertificateApiFactory ()</text></g><!--class CaCertificateType--><g id="elem_CaCertificateType"><rect codeLine="82" fill="#E9F7EF" height="66.6211" id="CaCertificateType" rx="2.5" ry="2.5" style="stroke:#27AE60;stroke-width:2.0;" width="157" x="22.5" y="677.7402"/><ellipse cx="37.5" cy="693.7402" fill="#EB937F" rx="11" ry="11" style="stroke:#181818;stroke-width:1.0;"/><path d="M36.3594,694.5371 L36.3594,697.0371 L40.6875,697.0371 L40.6875,696.1152 Q40.6875,695.5059 40.9219,695.2402 Q41.1719,694.9746 41.5469,694.9746 Q41.9219,694.9746 42.1563,695.2402 Q42.3906,695.5059 42.3906,696.1152 L42.3906,698.7402 L34.3906,698.7402 Q33.7656,698.7402 33.5,698.5059 Q33.25,698.2715 33.25,697.8809 Q33.25,697.5059 33.5156,697.2715 Q33.7813,697.0371 34.3906,697.0371 L34.6563,697.0371 L34.6563,690.3809 L34.3906,690.3809 Q33.7656,690.3809 33.5,690.1465 Q33.25,689.9121 33.25,689.5215 Q33.25,689.1465 33.5,688.9121 Q33.7656,688.6777 34.3906,688.6777 L42.0156,688.6777 L42.0156,691.2715 Q42.0156,691.8809 41.7813,692.1465 Q41.5625,692.3965 41.1719,692.3965 Q40.7969,692.3965 40.5625,692.1465 Q40.3281,691.8809 40.3281,691.2715 L40.3281,690.3809 L36.3594,690.3809 L36.3594,692.834 L37.8438,692.834 Q37.8438,692.1777 37.9688,691.9902 Q38.2344,691.584 38.7031,691.584 Q39.0781,691.584 39.3125,691.8496 Q39.5469,692.0996 39.5469,692.709 L39.5469,694.6777 Q39.5469,695.2246 39.4219,695.4121 Q39.1563,695.8027 38.7031,695.8027 Q38.2344,695.8027 37.9688,695.3965 Q37.8438,695.209 37.8438,694.5371 L36.3594,694.5371 Z " fill="#000000"/><ellipse cx="56.5" cy="693.2402" fill="#84BE84" rx="3" ry="3" style="stroke:#038048;stroke-width:1.0;"/><text fill="#000000" font-family="sans-serif" font-size="14" lengthAdjust="spacing" textLength="114" x="62.5" y="699.5371">CaCertificateType</text><line style="stroke:#27AE60;stroke-width:2.0;" x1="23.5" x2="178.5" y1="709.7402" y2="709.7402"/><text fill="#000000" font-family="sans-serif" font-size="14" lengthAdjust="spacing" textLength="90" x="28.5" y="728.8477">CALYPSO_V1</text><line style="stroke:#27AE60;stroke-width:2.0;" x1="23.5" x2="178.5" y1="736.3613" y2="736.3613"/></g><!--class CardCertificateType--><g id="elem_CardCertificateType"><rect codeLine="85" fill="#E9F7EF" height="66.6211" id="CardCertificateType" rx="2.5" ry="2.5" style="stroke:#27AE60;stroke-width:2.0;" width="170" x="215" y="677.7402"/><ellipse cx="230" cy="693.7402" fill="#EB937F" rx="11" ry="11" style="stroke:#181818;stroke-width:1.0;"/><path d="M228.8594,694.5371 L228.8594,697.0371 L233.1875,697.0371 L233.1875,696.1152 Q233.1875,695.5059 233.4219,695.2402 Q233.6719,694.9746 234.0469,694.9746 Q234.4219,694.9746 234.6563,695.2402 Q234.8906,695.5059 234.8906,696.1152 L234.8906,698.7402 L226.8906,698.7402 Q226.2656,698.7402 226,698.5059 Q225.75,698.2715 225.75,697.8809 Q225.75,697.5059 226.0156,697.2715 Q226.2813,697.0371 226.8906,697.0371 L227.1563,697.0371 L227.1563,690.3809 L226.8906,690.3809 Q226.2656,690.3809 226,690.1465 Q225.75,689.9121 225.75,689.5215 Q225.75,689.1465 226,688.9121 Q226.2656,688.6777 226.8906,688.6777 L234.5156,688.6777 L234.5156,691.2715 Q234.5156,691.8809 234.2813,692.1465 Q234.0625,692.3965 233.6719,692.3965 Q233.2969,692.3965 233.0625,692.1465 Q232.8281,691.8809 232.8281,691.2715 L232.8281,690.3809 L228.8594,690.3809 L228.8594,692.834 L230.3438,692.834 Q230.3438,692.1777 230.4688,691.9902 Q230.7344,691.584 231.2031,691.584 Q231.5781,691.584 231.8125,691.8496 Q232.0469,692.0996 232.0469,692.709 L232.0469,694.6777 Q232.0469,695.2246 231.9219,695.4121 Q231.6563,695.8027 231.2031,695.8027 Q230.7344,695.8027 230.4688,695.3965 Q230.3438,695.209 230.3438,694.5371 L228.8594,694.5371 Z " fill="#000000"/><ellipse cx="249" cy="693.2402" fill="#84BE84" rx="3" ry="3" style="stroke:#038048;stroke-width:1.0;"/><text fill="#000000" font-family="sans-serif" font-size="14" lengthAdjust="spacing" textLength="127" x="255" y="699.5371">CardCertificateType</text><line style="stroke:#27AE60;stroke-width:2.0;" x1="216" x2="384" y1="709.7402" y2="709.7402"/><text fill="#000000" font-family="sans-serif" font-size="14" lengthAdjust="spacing" textLength="90" x="221" y="728.8477">CALYPSO_V1</text><line style="stroke:#27AE60;stroke-width:2.0;" x1="216" x2="384" y1="736.3613" y2="736.3613"/></g><!--class CardIdentifier--><g id="elem_CardIdentifier"><rect codeLine="88" fill="#FEFECE" height="85.2422" id="CardIdentifier" rx="2.5" ry="2.5" style="stroke:#D4AC0D;stroke-width:2.0;" width="184" x="1014" y="350.7402"/><ellipse cx="1053.75" cy="366.7402" fill="#B4A7E5" rx="11" ry="11" style="stroke:#181818;stroke-width:1.0;"/><path d="M1054.7031,363.3809 L1054.7031,370.0371 L1056.4219,370.0371 Q1057.0313,370.0371 1057.2969,370.2715 Q1057.5625,370.5059 1057.5625,370.8965 Q1057.5625,371.2715 1057.2969,371.5059 Q1057.0313,371.7402 1056.4219,371.7402 L1051.2813,371.7402 Q1050.6719,371.7402 1050.4063,371.5059 Q1050.1406,371.2715 1050.1406,370.8809 Q1050.1406,370.5059 1050.4063,370.2715 Q1050.6719,370.0371 1051.2813,370.0371 L1053,370.0371 L1053,363.3809 L1051.2813,363.3809 Q1050.6719,363.3809 1050.4063,363.1465 Q1050.1406,362.9121 1050.1406,362.5215 Q1050.1406,362.1465 1050.4063,361.9121 Q1050.6719,361.6777 1051.2813,361.6777 L1056.4219,361.6777 Q1057.0313,361.6777 1057.2969,361.9121 Q1057.5625,362.1465 1057.5625,362.5215 Q1057.5625,362.9121 1057.2969,363.1465 Q1057.0313,363.3809 1056.4219,363.3809 L1054.7031,363.3809 Z " fill="#000000"/><ellipse cx="1078.25" cy="366.2402" fill="#84BE84" rx="3" ry="3" style="stroke:#038048;stroke-width:1.0;"/><text fill="#000000" font-family="sans-serif" font-size="14" font-style="italic" lengthAdjust="spacing" textLength="86" x="1084.25" y="372.5371">CardIdentifier</text><line style="stroke:#D4AC0D;stroke-width:2.0;" x1="1015" x2="1197" y1="382.7402" y2="382.7402"/><line style="stroke:#D4AC0D;stroke-width:2.0;" x1="1015" x2="1197" y1="390.7402" y2="390.7402"/><ellipse cx="1025" cy="405.5508" fill="#84BE84" rx="3" ry="3" style="stroke:#038048;stroke-width:1.0;"/><text fill="#000000" font-family="sans-serif" font-size="14" lengthAdjust="spacing" textLength="93" x="1034" y="409.8477">byte[] getAid ()</text><ellipse cx="1025" cy="424.1719" fill="#84BE84" rx="3" ry="3" style="stroke:#038048;stroke-width:1.0;"/><text fill="#000000" font-family="sans-serif" font-size="14" lengthAdjust="spacing" textLength="158" x="1034" y="428.4688">byte[] getSerialNumber ()</text></g><!--class CaCertificateValidatorSpi--><g id="elem_CaCertificateValidatorSpi"><rect codeLine="93" fill="#FDEDEC" height="66.6211" id="CaCertificateValidatorSpi" rx="2.5" ry="2.5" style="stroke:#E74C3C;stroke-width:2.0;" width="365" x="420.5" y="677.7402"/><ellipse cx="514.25" cy="693.7402" fill="#B4A7E5" rx="11" ry="11" style="stroke:#181818;stroke-width:1.0;"/><path d="M515.2031,690.3809 L515.2031,697.0371 L516.9219,697.0371 Q517.5313,697.0371 517.7969,697.2715 Q518.0625,697.5059 518.0625,697.8965 Q518.0625,698.2715 517.7969,698.5059 Q517.5313,698.7402 516.9219,698.7402 L511.7813,698.7402 Q511.1719,698.7402 510.9063,698.5059 Q510.6406,698.2715 510.6406,697.8809 Q510.6406,697.5059 510.9063,697.2715 Q511.1719,697.0371 511.7813,697.0371 L513.5,697.0371 L513.5,690.3809 L511.7813,690.3809 Q511.1719,690.3809 510.9063,690.1465 Q510.6406,689.9121 510.6406,689.5215 Q510.6406,689.1465 510.9063,688.9121 Q511.1719,688.6777 511.7813,688.6777 L516.9219,688.6777 Q517.5313,688.6777 517.7969,688.9121 Q518.0625,689.1465 518.0625,689.5215 Q518.0625,689.9121 517.7969,690.1465 Q517.5313,690.3809 516.9219,690.3809 L515.2031,690.3809 Z " fill="#000000"/><ellipse cx="539.75" cy="693.2402" fill="#84BE84" rx="3" ry="3" style="stroke:#038048;stroke-width:1.0;"/><text fill="#000000" font-family="sans-serif" font-size="14" font-style="italic" lengthAdjust="spacing" textLength="158" x="545.75" y="699.5371">CaCertificateValidatorSpi</text><line style="stroke:#E74C3C;stroke-width:2.0;" x1="421.5" x2="784.5" y1="709.7402" y2="709.7402"/><line style="stroke:#E74C3C;stroke-width:2.0;" x1="421.5" x2="784.5" y1="717.7402" y2="717.7402"/><ellipse cx="431.5" cy="732.5508" fill="#84BE84" rx="3" ry="3" style="stroke:#038048;stroke-width:1.0;"/><text fill="#000000" font-family="sans-serif" font-size="14" lengthAdjust="spacing" textLength="169" x="440.5" y="736.8477">boolean isCertificateValid (</text><text fill="#000000" filter="url(#buirkgf2w29bc0)" font-family="sans-serif" font-size="14" lengthAdjust="spacing" textLength="82" x="609.5" y="736.8477">CaCertificate</text><text fill="#000000" font-family="sans-serif" font-size="14" lengthAdjust="spacing" textLength="84" x="695.5" y="736.8477">caCertificate)</text></g><!--class CardCertificateValidatorSpi--><g id="elem_CardCertificateValidatorSpi"><rect codeLine="96" fill="#FDEDEC" height="66.6211" id="CardCertificateValidatorSpi" rx="2.5" ry="2.5" style="stroke:#E74C3C;stroke-width:2.0;" width="570" x="821" y="677.7402"/><ellipse cx="1010.75" cy="693.7402" fill="#B4A7E5" rx="11" ry="11" style="stroke:#181818;stroke-width:1.0;"/><path d="M1011.7031,690.3809 L1011.7031,697.0371 L1013.4219,697.0371 Q1014.0313,697.0371 1014.2969,697.2715 Q1014.5625,697.5059 1014.5625,697.8965 Q1014.5625,698.2715 1014.2969,698.5059 Q1014.0313,698.7402 1013.4219,698.7402 L1008.2813,698.7402 Q1007.6719,698.7402 1007.4063,698.5059 Q1007.1406,698.2715 1007.1406,697.8809 Q1007.1406,697.5059 1007.4063,697.2715 Q1007.6719,697.0371 1008.2813,697.0371 L1010,697.0371 L1010,690.3809 L1008.2813,690.3809 Q1007.6719,690.3809 1007.4063,690.1465 Q1007.1406,689.9121 1007.1406,689.5215 Q1007.1406,689.1465 1007.4063,688.9121 Q1007.6719,688.6777 1008.2813,688.6777 L1013.4219,688.6777 Q1014.0313,688.6777 1014.2969,688.9121 Q1014.5625,689.1465 1014.5625,689.5215 Q1014.5625,689.9121 1014.2969,690.1465 Q1014.0313,690.3809 1013.4219,690.3809 L1011.7031,690.3809 Z " fill="#000000"/><ellipse cx="1036.25" cy="693.2402" fill="#84BE84" rx="3" ry="3" style="stroke:#038048;stroke-width:1.0;"/><text fill="#000000" font-family="sans-serif" font-size="14" font-style="italic" lengthAdjust="spacing" textLength="171" x="1042.25" y="699.5371">CardCertificateValidatorSpi</text><line style="stroke:#E74C3C;stroke-width:2.0;" x1="822" x2="1390" y1="709.7402" y2="709.7402"/><line style="stroke:#E74C3C;stroke-width:2.0;" x1="822" x2="1390" y1="717.7402" y2="717.7402"/><ellipse cx="832" cy="732.5508" fill="#84BE84" rx="3" ry="3" style="stroke:#038048;stroke-width:1.0;"/><text fill="#000000" font-family="sans-serif" font-size="14" lengthAdjust="spacing" textLength="169" x="841" y="736.8477">boolean isCertificateValid (</text><text fill="#000000" filter="url(#buirkgf2w29bc0)" font-family="sans-serif" font-size="14" lengthAdjust="spacing" textLength="95" x="1010" y="736.8477">CardCertificate</text><text fill="#000000" font-family="sans-serif" font-size="14" lengthAdjust="spacing" textLength="276" x="1109" y="736.8477">cardCertificate, CardIdentifier cardIdentifier)</text></g><!--link PkiExtensionService to CaCertificateType--><g id="link_PkiExtensionService_CaCertificateType"><path codeLine="104" d="M268.78,575.8862 C244.506,595.0352 220.226,614.2562 197,632.7402 C178.564,647.4122 162.911,660.0107 145.733,673.9127 " fill="none" id="PkiExtensionService-to-CaCertificateType" style="stroke:#27AE60;stroke-width:2.0;stroke-dasharray:7.0,7.0;"/><polygon fill="#27AE60" points="141.069,677.6872,150.5814,675.1348,144.9557,674.5418,145.5486,668.9161,141.069,677.6872" style="stroke:#27AE60;stroke-width:2.0;"/><polygon fill="#000000" points="231.0893,618.5012,239.9951,615.1639,236.3326,610.5666,231.0893,618.5012" style="stroke:#000000;stroke-width:1.0;"/><text fill="#000000" font-family="sans-serif" font-size="13" lengthAdjust="spacing" textLength="21" x="244" y="620.7686">use</text></g><!--link PkiExtensionService to CardCertificateType--><g id="link_PkiExtensionService_CardCertificateType"><path codeLine="105" d="M385.534,575.7692 C360.598,614.9712 340.1412,647.1336 324.0472,672.4356 " fill="none" id="PkiExtensionService-to-CardCertificateType" style="stroke:#27AE60;stroke-width:2.0;stroke-dasharray:7.0,7.0;"/><polygon fill="#27AE60" points="320.827,677.4982,329.0324,672.0511,323.5105,673.2794,322.2822,667.7575,320.827,677.4982" style="stroke:#27AE60;stroke-width:2.0;"/><polygon fill="#000000" points="367.3165,619.6046,374.6508,613.5499,369.6912,610.3953,367.3165,619.6046" style="stroke:#000000;stroke-width:1.0;"/><text fill="#000000" font-family="sans-serif" font-size="13" lengthAdjust="spacing" textLength="21" x="379" y="620.7686">use</text></g><!--link PkiExtensionService to CaCertificateValidatorSpi--><g id="link_PkiExtensionService_CaCertificateValidatorSpi"><path codeLine="106" d="M559.595,575.7692 C572.249,614.9712 582.4209,646.4863 590.5879,671.7883 " fill="none" id="PkiExtensionService-to-CaCertificateValidatorSpi" style="stroke:#27AE60;stroke-width:2.0;stroke-dasharray:7.0,7.0;"/><polygon fill="#27AE60" points="592.431,677.4982,593.473,667.7047,590.8951,672.74,585.8598,670.1621,592.431,677.4982" style="stroke:#27AE60;stroke-width:2.0;"/><polygon fill="#000000" points="578.5359,620.144,578.5543,610.6335,572.9606,612.439,578.5359,620.144" style="stroke:#000000;stroke-width:1.0;"/><text fill="#000000" font-family="sans-serif" font-size="13" lengthAdjust="spacing" textLength="21" x="586" y="620.7686">use</text></g><!--link PkiExtensionService to CardCertificateValidatorSpi--><g id="link_PkiExtensionService_CardCertificateValidatorSpi"><path codeLine="107" d="M848.548,575.7692 C923.733,615.0402 989.8017,649.5485 1038.2517,674.8535 " fill="none" id="PkiExtensionService-to-CardCertificateValidatorSpi" style="stroke:#27AE60;stroke-width:2.0;stroke-dasharray:7.0,7.0;"/><polygon fill="#27AE60" points="1043.57,677.6312,1037.4443,669.9191,1039.1381,675.3165,1033.7407,677.0102,1043.57,677.6312" style="stroke:#27AE60;stroke-width:2.0;"/><polygon fill="#000000" points="936.4319,617.7006,929.7751,610.908,927.0539,616.118,936.4319,617.7006" style="stroke:#000000;stroke-width:1.0;"/><text fill="#000000" font-family="sans-serif" font-size="13" lengthAdjust="spacing" textLength="21" x="941" y="620.7686">use</text></g><!--reverse link CardIdentifier to CardCertificateValidatorSpi--><g id="link_CardIdentifier_CardCertificateValidatorSpi"><path codeLine="109" d="M1106,441.8762 C1106,505.5622 1106,619.8452 1106,677.6332 " fill="none" id="CardIdentifier-backto-CardCertificateValidatorSpi" style="stroke:#27AE60;stroke-width:2.0;stroke-dasharray:7.0,7.0;"/><polygon fill="#27AE60" points="1106,435.8762,1102,444.8762,1106,440.8762,1110,444.8762,1106,435.8762" style="stroke:#27AE60;stroke-width:2.0;"/><polygon fill="#000000" points="1111,610.3857,1108.0611,619.4308,1113.9389,619.4308,1111,610.3857" style="stroke:#000000;stroke-width:1.0;"/><text fill="#000000" font-family="sans-serif" font-size="13" lengthAdjust="spacing" textLength="21" x="1120" y="620.7686">use</text></g><!--SRC=[lLTRJzjA47xFhvX37me16qX2Kn2DvFZIedA9chGIgYgqiPTaJnpRsbsNMXN__SpwGcpZ9FISzkG1xDbllczcTZnhIoPzsWByVQH9v5FGO95UQ2xX7lxnaqY4cikJI8PQj63Qt-GxqNmsHUIHVgplmsxdgDFJZZhQSNUlHGCFPChPUWtlti7aWtrbumNUcc7iqvWBO4B4L817uGpcKaRYxF1mBfU-6_eXTqEF2jqDbuVt_52IgKz9h7aOJkRTOC9BmMQ15lb47hR-ykWz2oYOT-y_sRV7uBnrJftJcha3JiVfEhsQkGlsYTstw-WUM7rhQ5arymcOXkbOdPhv3GmjislsI-RBY-kFqEsTlhM69UldiGsTlc6_ELArqZGOoyJ7kiWvaU25mMi93o5Vm0EJSmZe0todNB0mWF0UCDT0naiVtLfYmOA8SB848IcdeKmYQWn3xb5kgeh2A-FKCYsd4NXH0GvxHjy-QGIQLKRBEXvs6e5s1MWFJxiedUPdNrigtfANwHCXClnapjn5G8M0Cgt1UVXGNaAcM-hxuSCp5k8kPZoC0ozNTcp7DkrciHnYzGppo4BAJzJRmdT-pgat622jPLkskO7s2MdtUzW7hJd3HY-CgpAXwYZc-A1j5OvIMAhTiqsdlr5x1Nvhztg6LSW_sIiHJFrukxu2fVaCdHDdk56zWEQzdcldrehoUqvfi5Lwfb2fzgdJjvsDsa_O_9dAnGjpNJrvYNYIQXlOH_OsxHJQCRlsILawgIfdCz6ykPxOrvDqAlfqbexCC4g7yDrToYWWiz_TmLbgR-EA_GE90kA3CRe0Jk-HDN2fM67QS3x59CuY5Ym6xROQw644PZR2yJ_tb6kxVNweO8EgayzcSvaLwxahvPBTCvT8ke4XIP_BWJeVT47Tc3EP542LOvPIgnMXXSmex8HyfbFNPv6WUdRewEhGqVD3HyyE7HqFdHqW0l0__4mbzrsr0x3JRkCe9Jv6C5emLPv0pSSnvT-PIrEV1dkf9p8szSEnL5pk_nIIIEO-DZhFgBm8482LXzszrighL7f39CibbPovPfg1glo4aq0GLoBL5GamVUxWNSYB2e7BAPRtbrpN1Z1oIMdBgWhLDTYT9f9-_GPHFFMPY_l-gMYiW-gsZWf0GVVaiVSdOwWlNOLUxCTYJUBcUaspKPAJXoy4nzFUxwKxWCewsfX7SCl64GEtSUKb2Oq85vHlY2C3m6x5EC710sxrVk__5FkDnU3UrWWR82h6YlbNIl879G-W1ggLfddjUN5AepkVs2K_8sArIOCZR1DCJHL5_fYDMXh4ItY-nqr3r3GkRqVZcxilnmq4pwlnSWeMuCbtJt3aAfuBZmQA2AkySjpFdq1Cpc1UaKDj1OSu8_vrl9og7IgdMPn98c9bqfNmpjeUJi-PzHrUlFcjMBEWmX0_OmBy5gexmkxM2LGshX9zN1FtsXRB8r_VWlyrzWhpAlgA-Q2-fsxbjfxUO-jHlKKPGeGk8-fC5ArMqq6jwuE6jdsLVNQTGIme33OuFc_N5xkkg-Q_qzv4qTg4rUCePoiLjqwGlezU6hStdoV5HpgspWzyKgHamGoqh_WkY-xVDBYaC-8cOxByB9cVUuudjvVPrttn0AcNj5V5j_VFnx9T5z7JMaUj_GC0]--></g></svg>