<?xml version="1.0" encoding="us-ascii" standalone="no"?><svg xmlns="http://www.w3.org/2000/svg" xmlns:xlink="http://www.w3.org/1999/xlink" contentStyleType="text/css" height="865.5px" preserveAspectRatio="none" style="width:1165px;height:865px;background:#FFFFFF;" version="1.1" viewBox="0 0 1165 865" width="1165.5px" zoomAndPan="magnify"><defs><filter height="1" id="b1eir2xmleb8yy0" width="1" x="0" y="0"><feFlood flood-color="#FFC0CB" result="flood"/><feComposite in="SourceGraphic" in2="flood" operator="over"/></filter><filter height="1" id="b1eir2xmleb8yy1" width="1" x="0" y="0"><feFlood flood-color="#90EE90" result="flood"/><feComposite in="SourceGraphic" in2="flood" operator="over"/></filter></defs><g><text fill="#000000" font-family="sans-serif" font-size="21" font-weight="bold" lengthAdjust="spacing" textLength="697.5" x="223.5" y="37.6611">Keyple - keyple-card-calypso-crypto-pki-java-lib - 0.1.+ (2024-02-09)</text><rect fill="#DDDDDD" height="126.7266" id="_legend" rx="11.25" ry="11.25" style="stroke:#000000;stroke-width:1.5;" width="361.5" x="391.5" y="77.4316"/><text fill="#000000" font-family="sans-serif" font-size="21" lengthAdjust="spacing" text-decoration="underline" textLength="132" x="399" y="107.5928">Colors legend</text><text fill="#000000" font-family="sans-serif" font-size="21" lengthAdjust="spacing" textLength="6" x="537" y="107.5928">:</text><ellipse cx="407.25" cy="129.5449" fill="#000000" rx="3.75" ry="3.75" style="stroke:#000000;stroke-width:0.0;"/><text fill="#000000" font-family="sans-serif" font-size="21" lengthAdjust="spacing" text-decoration="underline" textLength="222" x="417" y="135.5244">External API references</text><text fill="#000000" font-family="sans-serif" font-size="21" lengthAdjust="spacing" textLength="6" x="645" y="135.5244">:</text><rect fill="#000000" height="5.25" style="stroke:#000000;stroke-width:0.0;" width="5.25" x="412.5" y="153.7266"/><text fill="#000000" filter="url(#b1eir2xmleb8yy0)" font-family="sans-serif" font-size="21" font-weight="bold" lengthAdjust="spacing" textLength="262.5" x="423" y="163.4561">Keypop Calypso Card API</text><rect fill="#000000" height="5.25" style="stroke:#000000;stroke-width:0.0;" width="5.25" x="412.5" y="181.6582"/><text fill="#000000" filter="url(#b1eir2xmleb8yy1)" font-family="sans-serif" font-size="21" font-weight="bold" lengthAdjust="spacing" textLength="322.5" x="423" y="191.3877">Keypop Calypso Certificate API</text><!--cluster pki--><g id="cluster_pki"><path d="M12.75,232.6787 L455.25,232.6787 A5.625,5.625 0 0 1 459,236.4287 L469.5,269.6104 L1151.25,269.6104 A3.75,3.75 0 0 1 1155,273.3604 L1155,851.4287 A3.75,3.75 0 0 1 1151.25,855.1787 L12.75,855.1787 A3.75,3.75 0 0 1 9,851.4287 L9,236.4287 A3.75,3.75 0 0 1 12.75,232.6787 " fill="#F8F9F9" style="stroke:#000000;stroke-width:2.25;"/><line style="stroke:#000000;stroke-width:2.25;" x1="9" x2="469.5" y1="269.6104" y2="269.6104"/><text fill="#000000" font-family="sans-serif" font-size="21" font-weight="bold" lengthAdjust="spacing" textLength="441" x="15" y="258.3398">org.eclipse.keyple.card.calypso.crypto.pki</text></g><!--class PkiExtensionService--><g id="elem_PkiExtensionService"><rect codeLine="61" fill="#E9F7EF" height="323.3848" id="PkiExtensionService" rx="3.75" ry="3.75" style="stroke:#27AE60;stroke-width:3.0;" width="1098" x="33" y="288.1787"/><ellipse cx="446.625" cy="312.1787" fill="#ADD1B2" rx="16.5" ry="16.5" style="stroke:#181818;stroke-width:1.5;"/><path d="M450.7734,305.9912 Q451.0078,305.6631 451.2891,305.499 Q451.5703,305.335 451.8984,305.335 Q452.4609,305.335 452.8125,305.7334 Q453.1641,306.1084 453.1641,307.0225 L453.1641,309.2021 Q453.1641,310.1162 452.8125,310.5146 Q452.4609,310.9131 451.8984,310.9131 Q451.3828,310.9131 451.0781,310.6084 Q450.7734,310.3271 450.6094,309.5537 Q450.5391,309.0146 450.2578,308.7334 Q449.7656,308.1709 448.8516,307.8428 Q447.9375,307.5146 447,307.5146 Q445.8516,307.5146 444.8906,308.0068 Q443.9531,308.499 443.2031,309.624 Q442.4766,310.749 442.4766,312.2959 L442.4766,313.9365 Q442.4766,315.7881 443.8125,317.0303 Q445.1484,318.249 447.5391,318.249 Q448.9453,318.249 449.9297,317.874 Q450.5156,317.6396 451.1484,316.9834 Q451.5469,316.585 451.7578,316.4678 Q451.9922,316.3506 452.2969,316.3506 Q452.7891,316.3506 453.1641,316.749 Q453.5625,317.124 453.5625,317.6396 Q453.5625,318.1553 453.0469,318.7646 Q452.2969,319.6318 451.1016,320.124 Q449.4844,320.8037 447.5391,320.8037 Q445.2656,320.8037 443.4609,319.8662 Q441.9844,319.1162 440.9531,317.5225 Q439.9219,315.9053 439.9219,313.9834 L439.9219,312.249 Q439.9219,310.2568 440.8359,308.5459 Q441.7734,306.8115 443.4141,305.8975 Q445.0547,304.96 446.9063,304.96 Q448.0078,304.96 448.9688,305.2178 Q449.9531,305.4521 450.7734,305.9912 Z " fill="#000000"/><ellipse cx="484.875" cy="311.4287" fill="#84BE84" rx="4.5" ry="4.5" style="stroke:#038048;stroke-width:1.5;"/><text fill="#000000" font-family="sans-serif" font-size="21" font-weight="bold" lengthAdjust="spacing" textLength="45" x="493.875" y="320.874">final</text><text fill="#000000" font-family="sans-serif" font-size="21" lengthAdjust="spacing" textLength="190.5" x="544.875" y="320.874">PkiExtensionService</text><line style="stroke:#27AE60;stroke-width:3.0;" x1="34.5" x2="1129.5" y1="336.1787" y2="336.1787"/><line style="stroke:#27AE60;stroke-width:1.5;" x1="34.5" x2="1129.5" y1="348.1787" y2="348.1787"/><ellipse cx="49.5" cy="370.3945" fill="#84BE84" rx="4.5" ry="4.5" style="stroke:#038048;stroke-width:1.5;"/><text fill="#000000" font-family="sans-serif" font-size="21" lengthAdjust="spacing" text-decoration="underline" textLength="327" x="63" y="376.8398">PkiExtensionService getInstance ()</text><text fill="#000000" font-family="sans-serif" font-size="21" lengthAdjust="spacing" textLength="6" x="63" y="404.7715">&#160;</text><ellipse cx="49.5" cy="426.2578" fill="#84BE84" rx="4.5" ry="4.5" style="stroke:#038048;stroke-width:1.5;"/><text fill="#000000" filter="url(#b1eir2xmleb8yy0)" font-family="sans-serif" font-size="21" lengthAdjust="spacing" textLength="486" x="63" y="432.7031">AsymmetricCryptoCardTransactionManagerFactory</text><text fill="#000000" font-family="sans-serif" font-size="21" lengthAdjust="spacing" textLength="567" x="555" y="432.7031">createAsymmetricCryptoCardTransactionManagerFactory ()</text><ellipse cx="49.5" cy="454.1895" fill="#84BE84" rx="4.5" ry="4.5" style="stroke:#038048;stroke-width:1.5;"/><text fill="#000000" filter="url(#b1eir2xmleb8yy0)" font-family="sans-serif" font-size="21" lengthAdjust="spacing" textLength="132" x="63" y="460.6348">PcaCertificate</text><text fill="#000000" font-family="sans-serif" font-size="21" lengthAdjust="spacing" textLength="231" x="201" y="460.6348">createPcaCertificate (...)</text><ellipse cx="49.5" cy="482.1211" fill="#84BE84" rx="4.5" ry="4.5" style="stroke:#038048;stroke-width:1.5;"/><text fill="#000000" filter="url(#b1eir2xmleb8yy0)" font-family="sans-serif" font-size="21" lengthAdjust="spacing" textLength="123" x="63" y="488.5664">CaCertificate</text><text fill="#000000" font-family="sans-serif" font-size="21" lengthAdjust="spacing" textLength="222" x="192" y="488.5664">createCaCertificate (...)</text><ellipse cx="49.5" cy="510.0527" fill="#84BE84" rx="4.5" ry="4.5" style="stroke:#038048;stroke-width:1.5;"/><text fill="#000000" filter="url(#b1eir2xmleb8yy0)" font-family="sans-serif" font-size="21" lengthAdjust="spacing" textLength="186" x="63" y="516.498">CaCertificateParser</text><text fill="#000000" font-family="sans-serif" font-size="21" lengthAdjust="spacing" textLength="583.5" x="255" y="516.498">createCaCertificateParser (CaCertificateType certificateType)</text><ellipse cx="49.5" cy="537.9844" fill="#84BE84" rx="4.5" ry="4.5" style="stroke:#038048;stroke-width:1.5;"/><text fill="#000000" filter="url(#b1eir2xmleb8yy0)" font-family="sans-serif" font-size="21" lengthAdjust="spacing" textLength="205.5" x="63" y="544.4297">CardCertificateParser</text><text fill="#000000" font-family="sans-serif" font-size="21" lengthAdjust="spacing" textLength="622.5" x="274.5" y="544.4297">createCardCertificateParser (CardCertificateType certificateType)</text><text fill="#000000" font-family="sans-serif" font-size="21" lengthAdjust="spacing" textLength="6" x="63" y="572.3613">&#160;</text><ellipse cx="49.5" cy="593.8477" fill="#84BE84" rx="4.5" ry="4.5" style="stroke:#038048;stroke-width:1.5;"/><text fill="#000000" filter="url(#b1eir2xmleb8yy1)" font-family="sans-serif" font-size="21" lengthAdjust="spacing" textLength="274.5" x="63" y="600.293">CalypsoCertificateApiFactory</text><text fill="#000000" font-family="sans-serif" font-size="21" lengthAdjust="spacing" textLength="325.5" x="343.5" y="600.293">getCalypsoCertificateApiFactory ()</text></g><!--class CaCertificateType--><g id="elem_CaCertificateType"><rect codeLine="73" fill="#E9F7EF" height="99.9316" id="CaCertificateType" rx="3.75" ry="3.75" style="stroke:#27AE60;stroke-width:3.0;" width="235.5" x="336.75" y="730.6787"/><ellipse cx="359.25" cy="754.6787" fill="#EB937F" rx="16.5" ry="16.5" style="stroke:#181818;stroke-width:1.5;"/><path d="M357.5391,755.874 L357.5391,759.624 L364.0313,759.624 L364.0313,758.2412 Q364.0313,757.3271 364.3828,756.9287 Q364.7578,756.5303 365.3203,756.5303 Q365.8828,756.5303 366.2344,756.9287 Q366.5859,757.3271 366.5859,758.2412 L366.5859,762.1787 L354.5859,762.1787 Q353.6484,762.1787 353.25,761.8271 Q352.875,761.4756 352.875,760.8896 Q352.875,760.3271 353.2734,759.9756 Q353.6719,759.624 354.5859,759.624 L354.9844,759.624 L354.9844,749.6396 L354.5859,749.6396 Q353.6484,749.6396 353.25,749.2881 Q352.875,748.9365 352.875,748.3506 Q352.875,747.7881 353.25,747.4365 Q353.6484,747.085 354.5859,747.085 L366.0234,747.085 L366.0234,750.9756 Q366.0234,751.8896 365.6719,752.2881 Q365.3438,752.6631 364.7578,752.6631 Q364.1953,752.6631 363.8438,752.2881 Q363.4922,751.8896 363.4922,750.9756 L363.4922,749.6396 L357.5391,749.6396 L357.5391,753.3193 L359.7656,753.3193 Q359.7656,752.335 359.9531,752.0537 Q360.3516,751.4443 361.0547,751.4443 Q361.6172,751.4443 361.9688,751.8428 Q362.3203,752.2178 362.3203,753.1318 L362.3203,756.085 Q362.3203,756.9053 362.1328,757.1865 Q361.7344,757.7725 361.0547,757.7725 Q360.3516,757.7725 359.9531,757.1631 Q359.7656,756.8818 359.7656,755.874 L357.5391,755.874 Z " fill="#000000"/><ellipse cx="387.75" cy="753.9287" fill="#84BE84" rx="4.5" ry="4.5" style="stroke:#038048;stroke-width:1.5;"/><text fill="#000000" font-family="sans-serif" font-size="21" lengthAdjust="spacing" textLength="171" x="396.75" y="763.374">CaCertificateType</text><line style="stroke:#27AE60;stroke-width:3.0;" x1="338.25" x2="570.75" y1="778.6787" y2="778.6787"/><text fill="#000000" font-family="sans-serif" font-size="21" lengthAdjust="spacing" textLength="135" x="345.75" y="807.3398">CALYPSO_V1</text><line style="stroke:#27AE60;stroke-width:3.0;" x1="338.25" x2="570.75" y1="818.6104" y2="818.6104"/></g><!--class CardCertificateType--><g id="elem_CardCertificateType"><rect codeLine="76" fill="#E9F7EF" height="99.9316" id="CardCertificateType" rx="3.75" ry="3.75" style="stroke:#27AE60;stroke-width:3.0;" width="255" x="625.5" y="730.6787"/><ellipse cx="648" cy="754.6787" fill="#EB937F" rx="16.5" ry="16.5" style="stroke:#181818;stroke-width:1.5;"/><path d="M646.2891,755.874 L646.2891,759.624 L652.7813,759.624 L652.7813,758.2412 Q652.7813,757.3271 653.1328,756.9287 Q653.5078,756.5303 654.0703,756.5303 Q654.6328,756.5303 654.9844,756.9287 Q655.3359,757.3271 655.3359,758.2412 L655.3359,762.1787 L643.3359,762.1787 Q642.3984,762.1787 642,761.8271 Q641.625,761.4756 641.625,760.8896 Q641.625,760.3271 642.0234,759.9756 Q642.4219,759.624 643.3359,759.624 L643.7344,759.624 L643.7344,749.6396 L643.3359,749.6396 Q642.3984,749.6396 642,749.2881 Q641.625,748.9365 641.625,748.3506 Q641.625,747.7881 642,747.4365 Q642.3984,747.085 643.3359,747.085 L654.7734,747.085 L654.7734,750.9756 Q654.7734,751.8896 654.4219,752.2881 Q654.0938,752.6631 653.5078,752.6631 Q652.9453,752.6631 652.5938,752.2881 Q652.2422,751.8896 652.2422,750.9756 L652.2422,749.6396 L646.2891,749.6396 L646.2891,753.3193 L648.5156,753.3193 Q648.5156,752.335 648.7031,752.0537 Q649.1016,751.4443 649.8047,751.4443 Q650.3672,751.4443 650.7188,751.8428 Q651.0703,752.2178 651.0703,753.1318 L651.0703,756.085 Q651.0703,756.9053 650.8828,757.1865 Q650.4844,757.7725 649.8047,757.7725 Q649.1016,757.7725 648.7031,757.1631 Q648.5156,756.8818 648.5156,755.874 L646.2891,755.874 Z " fill="#000000"/><ellipse cx="676.5" cy="753.9287" fill="#84BE84" rx="4.5" ry="4.5" style="stroke:#038048;stroke-width:1.5;"/><text fill="#000000" font-family="sans-serif" font-size="21" lengthAdjust="spacing" textLength="190.5" x="685.5" y="763.374">CardCertificateType</text><line style="stroke:#27AE60;stroke-width:3.0;" x1="627" x2="879" y1="778.6787" y2="778.6787"/><text fill="#000000" font-family="sans-serif" font-size="21" lengthAdjust="spacing" textLength="135" x="634.5" y="807.3398">CALYPSO_V1</text><line style="stroke:#27AE60;stroke-width:3.0;" x1="627" x2="879" y1="818.6104" y2="818.6104"/></g><!--link PkiExtensionService to CaCertificateType--><g id="link_PkiExtensionService_CaCertificateType"><path codeLine="83" d="M519.555,612.1937 C502.77,655.3337 489.1255,690.4001 476.7655,722.2001 " fill="none" id="PkiExtensionService-to-CaCertificateType" style="stroke:#27AE60;stroke-width:3.0;stroke-dasharray:7.0,7.0;"/><polygon fill="#27AE60" points="473.505,730.5887,483.9882,720.1794,476.2221,723.5982,472.8033,715.8321,473.505,730.5887" style="stroke:#27AE60;stroke-width:3.0;"/><polygon fill="#000000" points="502.7811,678.6368,511.8081,667.5902,503.5911,664.394,502.7811,678.6368" style="stroke:#000000;stroke-width:1.5;"/><text fill="#000000" font-family="sans-serif" font-size="19.5" lengthAdjust="spacing" textLength="31.5" x="519" y="679.7212">use</text></g><!--link PkiExtensionService to CardCertificateType--><g id="link_PkiExtensionService_CardCertificateType"><path codeLine="84" d="M665.745,612.1937 C688.26,655.3337 706.7622,690.8093 723.3522,722.6093 " fill="none" id="PkiExtensionService-to-CardCertificateType" style="stroke:#27AE60;stroke-width:3.0;stroke-dasharray:7.0,7.0;"/><polygon fill="#27AE60" points="727.515,730.5887,726.5903,715.8444,724.046,723.9392,715.9511,721.3948,727.515,730.5887" style="stroke:#27AE60;stroke-width:3.0;"/><polygon fill="#000000" points="712.9692,678.2964,710.6018,664.2283,702.7849,668.3066,712.9692,678.2964" style="stroke:#000000;stroke-width:1.5;"/><text fill="#000000" font-family="sans-serif" font-size="19.5" lengthAdjust="spacing" textLength="31.5" x="723" y="679.7212">use</text></g><!--SRC=[dLPjR-8u4FwUNp7NVjWkLGBbPIbL5oaapcwrtHOjzAJgT49kCWKVmObiqsvKzR-VyqARG1RsBX_0cJppFEFnU6p5L8W6wESR9d68OC8o6vW-5O7-2PDOHgOlabX5PhnavZ_qYPeXUz38bdLcdS99kzNkcgsssHfyD907e39EumDy_WpJh-GxqGFzwaJh4DT20fDoZH82X0jOA1NBYsPpeLQX7uMHyAC0fUL7g-QZQ2hw429Tcu4E9_UkCUcXP7DknY5LJUEF01yPHt1cNtwG-pFmphs1DzWojy5hUnslksNk0EcHFjb6Ty7jkoFNtJBtmB4TpsrlcJ_1o7KwJhzalhww-GQTxk3S7PMiTnC2xRvDFhNIN9acJ5GIwhoe1LKGHFo3WkT8BE6PgGLmV8Od59957A97q7FbQhqAjPiXbup7LD0LI8K28vN4Q8yY4Q1mqep2iJrm7TUh1LvLWAEktIUzMg1JPNJTir6x5aWgG38QTBHqDZzouwRnbhoSa4gPuwSBvYyvIWbbMbk8wBdyIJFTOnX6ppiir5_EHRJcGQ7i4Oyuf5wiWBXTsscvcl871WVuBYy51iEXfdM9Ivmzj6z8qk_gEZ0MJ1VwnlYU9gqwNWkzqGuAnnaiq-uIn-llrNu7dvDkrtOtyc_sIWGFuVgmVWhAvZFoUjveh_e6MjHweLrOAyfV128_A3rFKPdsmEiJRw_s6xROKuNunhojdloEU99fsxgEo27j3DfsEgHNbawgodbFT6vlfkHccdN54ETPoupYh0dFPXcZXDm-cy55Pc_eB-Id9k8q17jy1G8VDIltKRvZ6d3ve2Tn4JE-73OQQKEFOd3o5gx_HP2wDXgNpHGsh3g5RBvGUR9sNL4eziXygh3Aa8QUHseOiRRGES9H9EOM-Y6B9LhvMMAbPubLd2LMVfPO-Ymv0Yf1_yDB5ikfdoOMZXeDtI5fg4CRBrawQvwslGcA9-PZvbDZBorrpfO-kjjiXgSlKb75_DTQvpcgAwu1Eg5myj5uzofbr9R9QeLACD_9Pf0cT2eebzHNckexvNhwmjDlaKYA384lK6VjFxcc0TJfZtrQMeYgGFKRd5YMLK_Y_9h3-JyKOoeaYZr4EG1EAiQftWpWLzz_9IQ2Wt8ra5ImOgwNtDOixOAY-4iKTiosLbUNpJxOPYLVy_96ljRDOoSFTONhsDVtuydjxC-p6eBTUVqMnMlQVcmf8v_HjEgaOTHj1SiQrWHvdDzNBc0j4OPx77U3stBDU-2rVNzxDzrS3Bd2dsg2IZ4-1_CltJy3v7-RS8rpwYSJkhfJB2my9zFxw_n6kUauQGSvtjptNbwDVm40]--></g></svg>