<?xml version="1.0" encoding="us-ascii" standalone="no"?><svg xmlns="http://www.w3.org/2000/svg" xmlns:xlink="http://www.w3.org/1999/xlink" contentStyleType="text/css" height="725px" preserveAspectRatio="none" style="width:777px;height:725px;background:#FFFFFF;" version="1.1" viewBox="0 0 777 725" width="777px" zoomAndPan="magnify"><defs><filter height="1" id="b1lozqmgwx9vse0" width="1" x="0" y="0"><feFlood flood-color="#FFC0CB" result="flood"/><feComposite in="SourceGraphic" in2="flood" operator="over"/></filter><filter height="1" id="b1lozqmgwx9vse1" width="1" x="0" y="0"><feFlood flood-color="#90EE90" result="flood"/><feComposite in="SourceGraphic" in2="flood" operator="over"/></filter><filter height="1" id="b1lozqmgwx9vse2" width="1" x="0" y="0"><feFlood flood-color="#FFFF00" result="flood"/><feComposite in="SourceGraphic" in2="flood" operator="over"/></filter></defs><g><text fill="#000000" font-family="sans-serif" font-size="14" font-weight="bold" lengthAdjust="spacing" textLength="465" x="149" y="25.1074">Keyple - keyple-card-calypso-crypto-pki-java-lib - 0.1.+ (2024-03-13)</text><rect fill="#DDDDDD" height="103.1055" id="_legend" rx="7.5" ry="7.5" style="stroke:#000000;stroke-width:1.0;" width="241" x="261" y="51.6211"/><text fill="#000000" font-family="sans-serif" font-size="14" lengthAdjust="spacing" text-decoration="underline" textLength="88" x="266" y="71.7285">Colors legend</text><text fill="#000000" font-family="sans-serif" font-size="14" lengthAdjust="spacing" textLength="4" x="358" y="71.7285">:</text><ellipse cx="271.5" cy="86.3633" fill="#000000" rx="2.5" ry="2.5" style="stroke:#000000;stroke-width:0.0;"/><text fill="#000000" font-family="sans-serif" font-size="14" lengthAdjust="spacing" text-decoration="underline" textLength="148" x="278" y="90.3496">External API references</text><text fill="#000000" font-family="sans-serif" font-size="14" lengthAdjust="spacing" textLength="4" x="430" y="90.3496">:</text><rect fill="#000000" height="3.5" style="stroke:#000000;stroke-width:0.0;" width="3.5" x="275" y="102.4844"/><text fill="#000000" filter="url(#b1lozqmgwx9vse0)" font-family="sans-serif" font-size="14" font-weight="bold" lengthAdjust="spacing" textLength="175" x="282" y="108.9707">Keypop Calypso Card API</text><rect fill="#000000" height="3.5" style="stroke:#000000;stroke-width:0.0;" width="3.5" x="275" y="121.1055"/><text fill="#000000" filter="url(#b1lozqmgwx9vse1)" font-family="sans-serif" font-size="14" font-weight="bold" lengthAdjust="spacing" textLength="215" x="282" y="127.5918">Keypop Calypso Certificate API</text><rect fill="#000000" height="3.5" style="stroke:#000000;stroke-width:0.0;" width="3.5" x="275" y="139.7266"/><text fill="#000000" filter="url(#b1lozqmgwx9vse2)" font-family="sans-serif" font-size="14" lengthAdjust="spacing" textLength="79" x="282" y="146.2129">java.security</text><!--cluster pki--><g id="cluster_pki"><path d="M8.5,173.7402 L303.5,173.7402 A3.75,3.75 0 0 1 306,176.2402 L313,198.3613 L767.5,198.3613 A2.5,2.5 0 0 1 770,200.8613 L770,716.2402 A2.5,2.5 0 0 1 767.5,718.7402 L8.5,718.7402 A2.5,2.5 0 0 1 6,716.2402 L6,176.2402 A2.5,2.5 0 0 1 8.5,173.7402 " fill="#F8F9F9" style="stroke:#000000;stroke-width:1.5;"/><line style="stroke:#000000;stroke-width:1.5;" x1="6" x2="313" y1="198.3613" y2="198.3613"/><text fill="#000000" font-family="sans-serif" font-size="14" font-weight="bold" lengthAdjust="spacing" textLength="294" x="10" y="190.8477">org.eclipse.keyple.card.calypso.crypto.pki</text></g><!--class PkiExtensionService--><g id="elem_PkiExtensionService"><rect codeLine="62" fill="#E9F7EF" height="345.9375" id="PkiExtensionService" rx="2.5" ry="2.5" style="stroke:#27AE60;stroke-width:2.0;" width="732" x="22" y="210.7402"/><ellipse cx="297.75" cy="226.7402" fill="#ADD1B2" rx="11" ry="11" style="stroke:#181818;stroke-width:1.0;"/><path d="M300.5156,222.6152 Q300.6719,222.3965 300.8594,222.2871 Q301.0469,222.1777 301.2656,222.1777 Q301.6406,222.1777 301.875,222.4434 Q302.1094,222.6934 302.1094,223.3027 L302.1094,224.7559 Q302.1094,225.3652 301.875,225.6309 Q301.6406,225.8965 301.2656,225.8965 Q300.9219,225.8965 300.7188,225.6934 Q300.5156,225.5059 300.4063,224.9902 Q300.3594,224.6309 300.1719,224.4434 Q299.8438,224.0684 299.2344,223.8496 Q298.625,223.6309 298,223.6309 Q297.2344,223.6309 296.5938,223.959 Q295.9688,224.2871 295.4688,225.0371 Q294.9844,225.7871 294.9844,226.8184 L294.9844,227.9121 Q294.9844,229.1465 295.875,229.9746 Q296.7656,230.7871 298.3594,230.7871 Q299.2969,230.7871 299.9531,230.5371 Q300.3438,230.3809 300.7656,229.9434 Q301.0313,229.6777 301.1719,229.5996 Q301.3281,229.5215 301.5313,229.5215 Q301.8594,229.5215 302.1094,229.7871 Q302.375,230.0371 302.375,230.3809 Q302.375,230.7246 302.0313,231.1309 Q301.5313,231.709 300.7344,232.0371 Q299.6563,232.4902 298.3594,232.4902 Q296.8438,232.4902 295.6406,231.8652 Q294.6563,231.3652 293.9688,230.3027 Q293.2813,229.2246 293.2813,227.9434 L293.2813,226.7871 Q293.2813,225.459 293.8906,224.3184 Q294.5156,223.1621 295.6094,222.5527 Q296.7031,221.9277 297.9375,221.9277 Q298.6719,221.9277 299.3125,222.0996 Q299.9688,222.2559 300.5156,222.6152 Z " fill="#000000"/><ellipse cx="323.25" cy="226.2402" fill="#84BE84" rx="3" ry="3" style="stroke:#038048;stroke-width:1.0;"/><text fill="#000000" font-family="sans-serif" font-size="14" font-weight="bold" lengthAdjust="spacing" textLength="30" x="329.25" y="232.5371">final</text><text fill="#000000" font-family="sans-serif" font-size="14" lengthAdjust="spacing" textLength="127" x="363.25" y="232.5371">PkiExtensionService</text><line style="stroke:#27AE60;stroke-width:2.0;" x1="23" x2="753" y1="242.7402" y2="242.7402"/><line style="stroke:#27AE60;stroke-width:1.0;" x1="23" x2="753" y1="250.7402" y2="250.7402"/><ellipse cx="33" cy="265.5508" fill="#84BE84" rx="3" ry="3" style="stroke:#038048;stroke-width:1.0;"/><text fill="#000000" font-family="sans-serif" font-size="14" lengthAdjust="spacing" text-decoration="underline" textLength="218" x="42" y="269.8477">PkiExtensionService getInstance ()</text><text fill="#000000" font-family="sans-serif" font-size="14" lengthAdjust="spacing" textLength="4" x="42" y="288.4688">&#160;</text><ellipse cx="33" cy="302.793" fill="#84BE84" rx="3" ry="3" style="stroke:#038048;stroke-width:1.0;"/><text fill="#000000" font-family="sans-serif" font-size="14" lengthAdjust="spacing" textLength="126" x="42" y="307.0898">void setTestMode ()</text><text fill="#000000" font-family="sans-serif" font-size="14" lengthAdjust="spacing" textLength="4" x="42" y="325.7109">&#160;</text><ellipse cx="33" cy="340.0352" fill="#84BE84" rx="3" ry="3" style="stroke:#038048;stroke-width:1.0;"/><text fill="#000000" filter="url(#b1lozqmgwx9vse0)" font-family="sans-serif" font-size="14" lengthAdjust="spacing" textLength="324" x="42" y="344.332">AsymmetricCryptoCardTransactionManagerFactory</text><text fill="#000000" font-family="sans-serif" font-size="14" lengthAdjust="spacing" textLength="378" x="370" y="344.332">createAsymmetricCryptoCardTransactionManagerFactory ()</text><text fill="#000000" font-family="sans-serif" font-size="14" lengthAdjust="spacing" textLength="4" x="42" y="362.9531">&#160;</text><ellipse cx="33" cy="377.2773" fill="#84BE84" rx="3" ry="3" style="stroke:#038048;stroke-width:1.0;"/><text fill="#000000" filter="url(#b1lozqmgwx9vse0)" font-family="sans-serif" font-size="14" lengthAdjust="spacing" textLength="88" x="42" y="381.5742">PcaCertificate</text><text fill="#000000" font-family="sans-serif" font-size="14" lengthAdjust="spacing" textLength="331" x="134" y="381.5742">createPcaCertificate (byte[] pcaPublicKeyReference,</text><text fill="#000000" filter="url(#b1lozqmgwx9vse2)" font-family="sans-serif" font-size="14" lengthAdjust="spacing" textLength="90" x="469" y="381.5742">RSAPublicKey</text><text fill="#000000" font-family="sans-serif" font-size="14" lengthAdjust="spacing" textLength="90" x="563" y="381.5742">pcaPublicKey)</text><ellipse cx="33" cy="395.8984" fill="#84BE84" rx="3" ry="3" style="stroke:#038048;stroke-width:1.0;"/><text fill="#000000" filter="url(#b1lozqmgwx9vse0)" font-family="sans-serif" font-size="14" lengthAdjust="spacing" textLength="88" x="42" y="400.1953">PcaCertificate</text><text fill="#000000" font-family="sans-serif" font-size="14" lengthAdjust="spacing" textLength="517" x="134" y="400.1953">createPcaCertificate (byte[] pcaPublicKeyReference, byte[] pcaPublicKeyModulus)</text><text fill="#000000" font-family="sans-serif" font-size="14" lengthAdjust="spacing" textLength="4" x="42" y="418.8164">&#160;</text><ellipse cx="33" cy="433.1406" fill="#84BE84" rx="3" ry="3" style="stroke:#038048;stroke-width:1.0;"/><text fill="#000000" filter="url(#b1lozqmgwx9vse0)" font-family="sans-serif" font-size="14" lengthAdjust="spacing" textLength="82" x="42" y="437.4375">CaCertificate</text><text fill="#000000" font-family="sans-serif" font-size="14" lengthAdjust="spacing" textLength="254" x="128" y="437.4375">createCaCertificate (byte[] caCertificate)</text><text fill="#000000" font-family="sans-serif" font-size="14" lengthAdjust="spacing" textLength="4" x="42" y="456.0586">&#160;</text><ellipse cx="33" cy="470.3828" fill="#84BE84" rx="3" ry="3" style="stroke:#038048;stroke-width:1.0;"/><text fill="#000000" filter="url(#b1lozqmgwx9vse0)" font-family="sans-serif" font-size="14" lengthAdjust="spacing" textLength="124" x="42" y="474.6797">CaCertificateParser</text><text fill="#000000" font-family="sans-serif" font-size="14" lengthAdjust="spacing" textLength="407" x="170" y="474.6797">createCaCertificateParser (CaCertificateType caCertificateType)</text><text fill="#000000" font-family="sans-serif" font-size="14" lengthAdjust="spacing" textLength="4" x="42" y="493.3008">&#160;</text><ellipse cx="33" cy="507.625" fill="#84BE84" rx="3" ry="3" style="stroke:#038048;stroke-width:1.0;"/><text fill="#000000" filter="url(#b1lozqmgwx9vse0)" font-family="sans-serif" font-size="14" lengthAdjust="spacing" textLength="137" x="42" y="511.9219">CardCertificateParser</text><text fill="#000000" font-family="sans-serif" font-size="14" lengthAdjust="spacing" textLength="446" x="183" y="511.9219">createCardCertificateParser (CardCertificateType cardCertificateType)</text><text fill="#000000" font-family="sans-serif" font-size="14" lengthAdjust="spacing" textLength="4" x="42" y="530.543">&#160;</text><ellipse cx="33" cy="544.8672" fill="#84BE84" rx="3" ry="3" style="stroke:#038048;stroke-width:1.0;"/><text fill="#000000" filter="url(#b1lozqmgwx9vse1)" font-family="sans-serif" font-size="14" lengthAdjust="spacing" textLength="183" x="42" y="549.1641">CalypsoCertificateApiFactory</text><text fill="#000000" font-family="sans-serif" font-size="14" lengthAdjust="spacing" textLength="217" x="229" y="549.1641">getCalypsoCertificateApiFactory ()</text></g><!--class CaCertificateType--><g id="elem_CaCertificateType"><rect codeLine="81" fill="#E9F7EF" height="66.6211" id="CaCertificateType" rx="2.5" ry="2.5" style="stroke:#27AE60;stroke-width:2.0;" width="157" x="240.5" y="635.7402"/><ellipse cx="255.5" cy="651.7402" fill="#EB937F" rx="11" ry="11" style="stroke:#181818;stroke-width:1.0;"/><path d="M254.3594,652.5371 L254.3594,655.0371 L258.6875,655.0371 L258.6875,654.1152 Q258.6875,653.5059 258.9219,653.2402 Q259.1719,652.9746 259.5469,652.9746 Q259.9219,652.9746 260.1563,653.2402 Q260.3906,653.5059 260.3906,654.1152 L260.3906,656.7402 L252.3906,656.7402 Q251.7656,656.7402 251.5,656.5059 Q251.25,656.2715 251.25,655.8809 Q251.25,655.5059 251.5156,655.2715 Q251.7813,655.0371 252.3906,655.0371 L252.6563,655.0371 L252.6563,648.3809 L252.3906,648.3809 Q251.7656,648.3809 251.5,648.1465 Q251.25,647.9121 251.25,647.5215 Q251.25,647.1465 251.5,646.9121 Q251.7656,646.6777 252.3906,646.6777 L260.0156,646.6777 L260.0156,649.2715 Q260.0156,649.8809 259.7813,650.1465 Q259.5625,650.3965 259.1719,650.3965 Q258.7969,650.3965 258.5625,650.1465 Q258.3281,649.8809 258.3281,649.2715 L258.3281,648.3809 L254.3594,648.3809 L254.3594,650.834 L255.8438,650.834 Q255.8438,650.1777 255.9688,649.9902 Q256.2344,649.584 256.7031,649.584 Q257.0781,649.584 257.3125,649.8496 Q257.5469,650.0996 257.5469,650.709 L257.5469,652.6777 Q257.5469,653.2246 257.4219,653.4121 Q257.1563,653.8027 256.7031,653.8027 Q256.2344,653.8027 255.9688,653.3965 Q255.8438,653.209 255.8438,652.5371 L254.3594,652.5371 Z " fill="#000000"/><ellipse cx="274.5" cy="651.2402" fill="#84BE84" rx="3" ry="3" style="stroke:#038048;stroke-width:1.0;"/><text fill="#000000" font-family="sans-serif" font-size="14" lengthAdjust="spacing" textLength="114" x="280.5" y="657.5371">CaCertificateType</text><line style="stroke:#27AE60;stroke-width:2.0;" x1="241.5" x2="396.5" y1="667.7402" y2="667.7402"/><text fill="#000000" font-family="sans-serif" font-size="14" lengthAdjust="spacing" textLength="65" x="246.5" y="686.8477">CALYPSO</text><line style="stroke:#27AE60;stroke-width:2.0;" x1="241.5" x2="396.5" y1="694.3613" y2="694.3613"/></g><!--class CardCertificateType--><g id="elem_CardCertificateType"><rect codeLine="84" fill="#E9F7EF" height="66.6211" id="CardCertificateType" rx="2.5" ry="2.5" style="stroke:#27AE60;stroke-width:2.0;" width="170" x="433" y="635.7402"/><ellipse cx="448" cy="651.7402" fill="#EB937F" rx="11" ry="11" style="stroke:#181818;stroke-width:1.0;"/><path d="M446.8594,652.5371 L446.8594,655.0371 L451.1875,655.0371 L451.1875,654.1152 Q451.1875,653.5059 451.4219,653.2402 Q451.6719,652.9746 452.0469,652.9746 Q452.4219,652.9746 452.6563,653.2402 Q452.8906,653.5059 452.8906,654.1152 L452.8906,656.7402 L444.8906,656.7402 Q444.2656,656.7402 444,656.5059 Q443.75,656.2715 443.75,655.8809 Q443.75,655.5059 444.0156,655.2715 Q444.2813,655.0371 444.8906,655.0371 L445.1563,655.0371 L445.1563,648.3809 L444.8906,648.3809 Q444.2656,648.3809 444,648.1465 Q443.75,647.9121 443.75,647.5215 Q443.75,647.1465 444,646.9121 Q444.2656,646.6777 444.8906,646.6777 L452.5156,646.6777 L452.5156,649.2715 Q452.5156,649.8809 452.2813,650.1465 Q452.0625,650.3965 451.6719,650.3965 Q451.2969,650.3965 451.0625,650.1465 Q450.8281,649.8809 450.8281,649.2715 L450.8281,648.3809 L446.8594,648.3809 L446.8594,650.834 L448.3438,650.834 Q448.3438,650.1777 448.4688,649.9902 Q448.7344,649.584 449.2031,649.584 Q449.5781,649.584 449.8125,649.8496 Q450.0469,650.0996 450.0469,650.709 L450.0469,652.6777 Q450.0469,653.2246 449.9219,653.4121 Q449.6563,653.8027 449.2031,653.8027 Q448.7344,653.8027 448.4688,653.3965 Q448.3438,653.209 448.3438,652.5371 L446.8594,652.5371 Z " fill="#000000"/><ellipse cx="467" cy="651.2402" fill="#84BE84" rx="3" ry="3" style="stroke:#038048;stroke-width:1.0;"/><text fill="#000000" font-family="sans-serif" font-size="14" lengthAdjust="spacing" textLength="127" x="473" y="657.5371">CardCertificateType</text><line style="stroke:#27AE60;stroke-width:2.0;" x1="434" x2="602" y1="667.7402" y2="667.7402"/><text fill="#000000" font-family="sans-serif" font-size="14" lengthAdjust="spacing" textLength="65" x="439" y="686.8477">CALYPSO</text><line style="stroke:#27AE60;stroke-width:2.0;" x1="434" x2="602" y1="694.3613" y2="694.3613"/></g><!--link PkiExtensionService to CaCertificateType--><g id="link_PkiExtensionService_CaCertificateType"><path codeLine="91" d="M346.073,557.0072 C338.792,586.9212 333.3928,609.1024 328.4208,629.5322 " fill="none" id="PkiExtensionService-to-CaCertificateType" style="stroke:#27AE60;stroke-width:2.0;stroke-dasharray:7.0,7.0;"/><polygon fill="#27AE60" points="327.002,635.362,333.0168,627.5632,328.1843,630.5038,325.2437,625.6714,327.002,635.362" style="stroke:#27AE60;stroke-width:2.0;"/><polygon fill="#000000" points="340.8175,601.2439,345.8122,593.1504,340.1011,591.7604,340.8175,601.2439" style="stroke:#000000;stroke-width:1.0;"/><text fill="#000000" font-family="sans-serif" font-size="13" lengthAdjust="spacing" textLength="21" x="351" y="601.7686">use</text></g><!--link PkiExtensionService to CardCertificateType--><g id="link_PkiExtensionService_CardCertificateType"><path codeLine="92" d="M466.994,557.0072 C480.711,586.9212 491.0539,609.4784 500.4229,629.9082 " fill="none" id="PkiExtensionService-to-CardCertificateType" style="stroke:#27AE60;stroke-width:2.0;stroke-dasharray:7.0,7.0;"/><polygon fill="#27AE60" points="502.924,635.362,502.8082,625.5139,500.8397,630.8172,495.5364,628.8487,502.924,635.362" style="stroke:#27AE60;stroke-width:2.0;"/><polygon fill="#000000" points="493.0841,600.9307,491.9854,591.4838,486.6425,593.9338,493.0841,600.9307" style="stroke:#000000;stroke-width:1.0;"/><text fill="#000000" font-family="sans-serif" font-size="13" lengthAdjust="spacing" textLength="21" x="500" y="601.7686">use</text></g><!--SRC=[jLPTK-9A47tFh-ZhFgpYJL30HIoNgf1CTgtrWn9yiBQsh25fOIuXISrCT5EM__rElZI127iVBWyGpfpkqzFJqnt9f8yQgCyFJ28VGOTbzg2xb7lgoqyY4UekJo8Pwj6IwV_G9whxRAQOHyQnSGZxdQDEJp_gwiVT0mq33sJcK_iCNx_2z3kv8kf1_RN2sCUO2s12n2Z0GpY3XPIHE6kt5tBbkw4VSZVqK1Xkk6e_yhQaCnzfh7igdDow0LAFWiq3FVAfR6j_UVZ80WJhuTijkJy6vzGPE8Crk0DEn-awlJMu2-I4zCawkmTstnxPzXfy0fPfENPd3Vu28zlgMlqAV7bn_GEwlS6fFQgWTnC2dRv9lXobkT9rcCZ4LtcH2oh12uFF4fv3leHd9XSGu3Cy8HSi321y1BNNGCOhNvbfOic2Y7Aw0Y6HOoYJ2CrHo3taLffH-6GERCjs6eaNDUAeP_R9IIFHgdkqxUDHfv58QaGo6dILTBO_ScsdyLQiB9yAaVEd2-Ok0nG2gcvDpiFdwfBoT8- -7pvlUA7kSix3EF0APOSun2BDOWN5xfdMaQrStgAtmz_vEKTlE5HkRM8JQulRDoRfzrGTQ0kc2hq4tzEaLCSnLnTjft2KqJBj7h6S_bRjT_8fwVLCkvH_msiHpFnujtvAolOpSawSqLRrabhKUg5Te3NbRnmns2azJrcPzi3f4sUhzXktk5E5U0clgoT_8fvasgQg8x9BEwDsh2uvgKedTUMy9retrrDoFSswee_ph6M6KTQ47nuoZm9o_E41pZAyfLR8R-Kee3wOumlW-AYy1YwATquBpcTg4sSH2vR3LYjjw644Ljx2rI_tKjDMwxoTqePr8v_D5p9FrgOfSiaUcKibRl6GPFTocCu7Gw0RSoQJafZkCT-IfaKAeNE4lP3F3NHz5Waqyg5Zf4F7A8QEaGyTGmsTFQ02r2-yP9A7Rde2iDTggLPAVHN1UCdIz0HfVvmWVs8kPZODUAKcSc_fHxMbyl7mHKWgcVlQQ3n7UH4eWieyx1zexrPF8VD0e9oYa5TgXjLNAmTZYcIrGicPQsNxIyzbocaWg2kLq1KDL7Aue_w5lCmVk1nLyl-JwOS1Z5rQET2wGdqDzcU9n9-_87BfE9xvp5M5SLjMtj_rSx-Tc6-SqcdLxk1_3gPXLPr3xCVYWpnO7ojRZSArSFx4wPXoWNoBwvm0-pLmgZf5NIj5FjJZtax51aggMOCBrGriKxVIAOe6KJ4n8xPMkkh6RAEbPPewVyrlDWQnQh0RwMYwivPvUJ-Ut3HORsvij_rhsfnD8KANqVGo2Krhkl-6CMm8xrF-DdS6iK0ORZ7SZ6pDD9yGb-RzpTsqV6qE9FwM4vII1NFGVwhfuc7mIuTBd5CtcT3LdMH-OJcPtb_cxzjbcqtRvgVoRVZbLViN]--></g></svg>