<?xml version="1.0" encoding="us-ascii" standalone="no"?><svg xmlns="http://www.w3.org/2000/svg" xmlns:xlink="http://www.w3.org/1999/xlink" contentStyleType="text/css" height="670px" preserveAspectRatio="none" style="width:777px;height:670px;background:#FFFFFF;" version="1.1" viewBox="0 0 777 670" width="777px" zoomAndPan="magnify"><defs><filter height="1" id="bkanku9pfhzs50" width="1" x="0" y="0"><feFlood flood-color="#FFC0CB" result="flood"/><feComposite in="SourceGraphic" in2="flood" operator="over"/></filter><filter height="1" id="bkanku9pfhzs51" width="1" x="0" y="0"><feFlood flood-color="#FFFF00" result="flood"/><feComposite in="SourceGraphic" in2="flood" operator="over"/></filter></defs><g><text fill="#000000" font-family="sans-serif" font-size="14" font-weight="bold" lengthAdjust="spacing" textLength="465" x="149" y="25.1074">Keyple - keyple-card-calypso-crypto-pki-java-lib - 0.2.+ (2024-04-17)</text><rect fill="#DDDDDD" height="84.4844" id="_legend" rx="7.5" ry="7.5" style="stroke:#000000;stroke-width:1.0;" width="201" x="281" y="51.6211"/><text fill="#000000" font-family="sans-serif" font-size="14" lengthAdjust="spacing" text-decoration="underline" textLength="88" x="286" y="71.7285">Colors legend</text><text fill="#000000" font-family="sans-serif" font-size="14" lengthAdjust="spacing" textLength="4" x="378" y="71.7285">:</text><ellipse cx="291.5" cy="86.3633" fill="#000000" rx="2.5" ry="2.5" style="stroke:#000000;stroke-width:0.0;"/><text fill="#000000" font-family="sans-serif" font-size="14" lengthAdjust="spacing" text-decoration="underline" textLength="148" x="298" y="90.3496">External API references</text><text fill="#000000" font-family="sans-serif" font-size="14" lengthAdjust="spacing" textLength="4" x="450" y="90.3496">:</text><rect fill="#000000" height="3.5" style="stroke:#000000;stroke-width:0.0;" width="3.5" x="295" y="102.4844"/><text fill="#000000" filter="url(#bkanku9pfhzs50)" font-family="sans-serif" font-size="14" font-weight="bold" lengthAdjust="spacing" textLength="175" x="302" y="108.9707">Keypop Calypso Card API</text><rect fill="#000000" height="3.5" style="stroke:#000000;stroke-width:0.0;" width="3.5" x="295" y="121.1055"/><text fill="#000000" filter="url(#bkanku9pfhzs51)" font-family="sans-serif" font-size="14" lengthAdjust="spacing" textLength="79" x="302" y="127.5918">java.security</text><!--cluster pki--><g id="cluster_pki"><path d="M8.5,155.1191 L303.5,155.1191 A3.75,3.75 0 0 1 306,157.6191 L313,179.7402 L767.5,179.7402 A2.5,2.5 0 0 1 770,182.2402 L770,660.6191 A2.5,2.5 0 0 1 767.5,663.1191 L8.5,663.1191 A2.5,2.5 0 0 1 6,660.6191 L6,157.6191 A2.5,2.5 0 0 1 8.5,155.1191 " fill="#F8F9F9" style="stroke:#000000;stroke-width:1.5;"/><line style="stroke:#000000;stroke-width:1.5;" x1="6" x2="313" y1="179.7402" y2="179.7402"/><text fill="#000000" font-family="sans-serif" font-size="14" font-weight="bold" lengthAdjust="spacing" textLength="294" x="10" y="172.2266">org.eclipse.keyple.card.calypso.crypto.pki</text></g><!--class PkiExtensionService--><g id="elem_PkiExtensionService"><rect codeLine="61" fill="#E9F7EF" height="308.6953" id="PkiExtensionService" rx="2.5" ry="2.5" style="stroke:#27AE60;stroke-width:2.0;" width="732" x="22" y="192.1191"/><ellipse cx="297.75" cy="208.1191" fill="#ADD1B2" rx="11" ry="11" style="stroke:#181818;stroke-width:1.0;"/><path d="M300.5156,203.9941 Q300.6719,203.7754 300.8594,203.666 Q301.0469,203.5566 301.2656,203.5566 Q301.6406,203.5566 301.875,203.8223 Q302.1094,204.0723 302.1094,204.6816 L302.1094,206.1348 Q302.1094,206.7441 301.875,207.0098 Q301.6406,207.2754 301.2656,207.2754 Q300.9219,207.2754 300.7188,207.0723 Q300.5156,206.8848 300.4063,206.3691 Q300.3594,206.0098 300.1719,205.8223 Q299.8438,205.4473 299.2344,205.2285 Q298.625,205.0098 298,205.0098 Q297.2344,205.0098 296.5938,205.3379 Q295.9688,205.666 295.4688,206.416 Q294.9844,207.166 294.9844,208.1973 L294.9844,209.291 Q294.9844,210.5254 295.875,211.3535 Q296.7656,212.166 298.3594,212.166 Q299.2969,212.166 299.9531,211.916 Q300.3438,211.7598 300.7656,211.3223 Q301.0313,211.0566 301.1719,210.9785 Q301.3281,210.9004 301.5313,210.9004 Q301.8594,210.9004 302.1094,211.166 Q302.375,211.416 302.375,211.7598 Q302.375,212.1035 302.0313,212.5098 Q301.5313,213.0879 300.7344,213.416 Q299.6563,213.8691 298.3594,213.8691 Q296.8438,213.8691 295.6406,213.2441 Q294.6563,212.7441 293.9688,211.6816 Q293.2813,210.6035 293.2813,209.3223 L293.2813,208.166 Q293.2813,206.8379 293.8906,205.6973 Q294.5156,204.541 295.6094,203.9316 Q296.7031,203.3066 297.9375,203.3066 Q298.6719,203.3066 299.3125,203.4785 Q299.9688,203.6348 300.5156,203.9941 Z " fill="#000000"/><ellipse cx="323.25" cy="207.6191" fill="#84BE84" rx="3" ry="3" style="stroke:#038048;stroke-width:1.0;"/><text fill="#000000" font-family="sans-serif" font-size="14" font-weight="bold" lengthAdjust="spacing" textLength="30" x="329.25" y="213.916">final</text><text fill="#000000" font-family="sans-serif" font-size="14" lengthAdjust="spacing" textLength="127" x="363.25" y="213.916">PkiExtensionService</text><line style="stroke:#27AE60;stroke-width:2.0;" x1="23" x2="753" y1="224.1191" y2="224.1191"/><line style="stroke:#27AE60;stroke-width:1.0;" x1="23" x2="753" y1="232.1191" y2="232.1191"/><ellipse cx="33" cy="246.9297" fill="#84BE84" rx="3" ry="3" style="stroke:#038048;stroke-width:1.0;"/><text fill="#000000" font-family="sans-serif" font-size="14" lengthAdjust="spacing" text-decoration="underline" textLength="218" x="42" y="251.2266">PkiExtensionService getInstance ()</text><text fill="#000000" font-family="sans-serif" font-size="14" lengthAdjust="spacing" textLength="4" x="42" y="269.8477">&#160;</text><ellipse cx="33" cy="284.1719" fill="#84BE84" rx="3" ry="3" style="stroke:#038048;stroke-width:1.0;"/><text fill="#000000" font-family="sans-serif" font-size="14" lengthAdjust="spacing" textLength="126" x="42" y="288.4688">void setTestMode ()</text><text fill="#000000" font-family="sans-serif" font-size="14" lengthAdjust="spacing" textLength="4" x="42" y="307.0898">&#160;</text><ellipse cx="33" cy="321.4141" fill="#84BE84" rx="3" ry="3" style="stroke:#038048;stroke-width:1.0;"/><text fill="#000000" filter="url(#bkanku9pfhzs50)" font-family="sans-serif" font-size="14" lengthAdjust="spacing" textLength="324" x="42" y="325.7109">AsymmetricCryptoCardTransactionManagerFactory</text><text fill="#000000" font-family="sans-serif" font-size="14" lengthAdjust="spacing" textLength="378" x="370" y="325.7109">createAsymmetricCryptoCardTransactionManagerFactory ()</text><text fill="#000000" font-family="sans-serif" font-size="14" lengthAdjust="spacing" textLength="4" x="42" y="344.332">&#160;</text><ellipse cx="33" cy="358.6563" fill="#84BE84" rx="3" ry="3" style="stroke:#038048;stroke-width:1.0;"/><text fill="#000000" filter="url(#bkanku9pfhzs50)" font-family="sans-serif" font-size="14" lengthAdjust="spacing" textLength="88" x="42" y="362.9531">PcaCertificate</text><text fill="#000000" font-family="sans-serif" font-size="14" lengthAdjust="spacing" textLength="331" x="134" y="362.9531">createPcaCertificate (byte[] pcaPublicKeyReference,</text><text fill="#000000" filter="url(#bkanku9pfhzs51)" font-family="sans-serif" font-size="14" lengthAdjust="spacing" textLength="90" x="469" y="362.9531">RSAPublicKey</text><text fill="#000000" font-family="sans-serif" font-size="14" lengthAdjust="spacing" textLength="90" x="563" y="362.9531">pcaPublicKey)</text><ellipse cx="33" cy="377.2773" fill="#84BE84" rx="3" ry="3" style="stroke:#038048;stroke-width:1.0;"/><text fill="#000000" filter="url(#bkanku9pfhzs50)" font-family="sans-serif" font-size="14" lengthAdjust="spacing" textLength="88" x="42" y="381.5742">PcaCertificate</text><text fill="#000000" font-family="sans-serif" font-size="14" lengthAdjust="spacing" textLength="517" x="134" y="381.5742">createPcaCertificate (byte[] pcaPublicKeyReference, byte[] pcaPublicKeyModulus)</text><text fill="#000000" font-family="sans-serif" font-size="14" lengthAdjust="spacing" textLength="4" x="42" y="400.1953">&#160;</text><ellipse cx="33" cy="414.5195" fill="#84BE84" rx="3" ry="3" style="stroke:#038048;stroke-width:1.0;"/><text fill="#000000" filter="url(#bkanku9pfhzs50)" font-family="sans-serif" font-size="14" lengthAdjust="spacing" textLength="82" x="42" y="418.8164">CaCertificate</text><text fill="#000000" font-family="sans-serif" font-size="14" lengthAdjust="spacing" textLength="254" x="128" y="418.8164">createCaCertificate (byte[] caCertificate)</text><text fill="#000000" font-family="sans-serif" font-size="14" lengthAdjust="spacing" textLength="4" x="42" y="437.4375">&#160;</text><ellipse cx="33" cy="451.7617" fill="#84BE84" rx="3" ry="3" style="stroke:#038048;stroke-width:1.0;"/><text fill="#000000" filter="url(#bkanku9pfhzs50)" font-family="sans-serif" font-size="14" lengthAdjust="spacing" textLength="124" x="42" y="456.0586">CaCertificateParser</text><text fill="#000000" font-family="sans-serif" font-size="14" lengthAdjust="spacing" textLength="371" x="170" y="456.0586">createCaCertificateParser (CertificateType certificateType)</text><text fill="#000000" font-family="sans-serif" font-size="14" lengthAdjust="spacing" textLength="4" x="42" y="474.6797">&#160;</text><ellipse cx="33" cy="489.0039" fill="#84BE84" rx="3" ry="3" style="stroke:#038048;stroke-width:1.0;"/><text fill="#000000" filter="url(#bkanku9pfhzs50)" font-family="sans-serif" font-size="14" lengthAdjust="spacing" textLength="137" x="42" y="493.3008">CardCertificateParser</text><text fill="#000000" font-family="sans-serif" font-size="14" lengthAdjust="spacing" textLength="384" x="183" y="493.3008">createCardCertificateParser (CertificateType certificateType)</text></g><!--class CertificateType--><g id="elem_CertificateType"><rect codeLine="78" fill="#E9F7EF" height="66.6211" id="CertificateType" rx="2.5" ry="2.5" style="stroke:#27AE60;stroke-width:2.0;" width="141" x="317.5" y="580.1191"/><ellipse cx="333.4" cy="596.1191" fill="#EB937F" rx="11" ry="11" style="stroke:#181818;stroke-width:1.0;"/><path d="M332.2594,596.916 L332.2594,599.416 L336.5875,599.416 L336.5875,598.4941 Q336.5875,597.8848 336.8219,597.6191 Q337.0719,597.3535 337.4469,597.3535 Q337.8219,597.3535 338.0563,597.6191 Q338.2906,597.8848 338.2906,598.4941 L338.2906,601.1191 L330.2906,601.1191 Q329.6656,601.1191 329.4,600.8848 Q329.15,600.6504 329.15,600.2598 Q329.15,599.8848 329.4156,599.6504 Q329.6813,599.416 330.2906,599.416 L330.5563,599.416 L330.5563,592.7598 L330.2906,592.7598 Q329.6656,592.7598 329.4,592.5254 Q329.15,592.291 329.15,591.9004 Q329.15,591.5254 329.4,591.291 Q329.6656,591.0566 330.2906,591.0566 L337.9156,591.0566 L337.9156,593.6504 Q337.9156,594.2598 337.6813,594.5254 Q337.4625,594.7754 337.0719,594.7754 Q336.6969,594.7754 336.4625,594.5254 Q336.2281,594.2598 336.2281,593.6504 L336.2281,592.7598 L332.2594,592.7598 L332.2594,595.2129 L333.7438,595.2129 Q333.7438,594.5566 333.8688,594.3691 Q334.1344,593.9629 334.6031,593.9629 Q334.9781,593.9629 335.2125,594.2285 Q335.4469,594.4785 335.4469,595.0879 L335.4469,597.0566 Q335.4469,597.6035 335.3219,597.791 Q335.0563,598.1816 334.6031,598.1816 Q334.1344,598.1816 333.8688,597.7754 Q333.7438,597.5879 333.7438,596.916 L332.2594,596.916 Z " fill="#000000"/><ellipse cx="352.6" cy="595.6191" fill="#84BE84" rx="3" ry="3" style="stroke:#038048;stroke-width:1.0;"/><text fill="#000000" font-family="sans-serif" font-size="14" lengthAdjust="spacing" textLength="96" x="358.6" y="601.916">CertificateType</text><line style="stroke:#27AE60;stroke-width:2.0;" x1="318.5" x2="457.5" y1="612.1191" y2="612.1191"/><text fill="#000000" font-family="sans-serif" font-size="14" lengthAdjust="spacing" textLength="129" x="323.5" y="631.2266">CALYPSO_LEGACY</text><line style="stroke:#27AE60;stroke-width:2.0;" x1="318.5" x2="457.5" y1="638.7402" y2="638.7402"/></g><!--link PkiExtensionService to CertificateType--><g id="link_PkiExtensionService_CertificateType"><path codeLine="85" d="M388,501.3891 C388,531.0691 388,553.2891 388,573.8791 " fill="none" id="PkiExtensionService-to-CertificateType" style="stroke:#27AE60;stroke-width:2.0;stroke-dasharray:7.0,7.0;"/><polygon fill="#27AE60" points="388,579.8791,392,570.8791,388,574.8791,384,570.8791,388,579.8791" style="stroke:#27AE60;stroke-width:2.0;"/><polygon fill="#000000" points="393,545.7646,395.9389,536.7196,390.0611,536.7196,393,545.7646" style="stroke:#000000;stroke-width:1.0;"/><text fill="#000000" font-family="sans-serif" font-size="13" lengthAdjust="spacing" textLength="21" x="402" y="546.1475">use</text></g><!--SRC=[jLRHKgD857tdA-xgmsXSY2OuCPQJAWADOqtKb8aFgQcfL0UkIMy8KDsD3cNvxzj0q911upui3mdSFlUSsvVkqqWc0zH0NJymZGC47PRvZUvHxgkV88r5f7iyZMManqkc_qCVgHwmcK8U6otZ20vQnorJFpRraywXXg4FCkVKli2tRp3-Jgw9kb6FTfG4c701J8W41VW8vx2GCXRdpUP2hW8l2YBkHJuAmujMpGVUb7GM84rqNvLJPDU4rArWyr2F0ogRsby-Fh0GmPvUtf792RXdRjVjReLRuBRSjcjkXTj0Jac7RADDS3fEtt6smgTWMxRhjBR2Nw7ls6sxin4UNDtyWBRPFNFw6z7x4O5Mno9VZxDUwJgCP1geliW5bU17uHS9Jn5VmXEJ2mZn2HwH2nQ543s0cciearMWqZInP65CELs1aCWnaccCLZ_YFd8xwoZiMrt7TjnQu5K5s3Uj3Zcj1TfLHiSvwRTgWQG29FrkMqddyoCtJbRlHfOTK24A_7Z1l6M8Gi0chSLvzBGvf9Wc60JHqnyir5lEUPI4_bhP9IwnIRtO6kAObdtiACexz7VmNLnmz7izHUiGXzWVqBuYISTKwq1RCBNGo-1RcvJgCE5ge-qKZdDOhcqIs-rygFq6FYEcQJcb_6kyKi4iI7RhPw1yFdttrEr_g5v2rsjzhRsELfGlEMAuKtgUeNBjhjiXxeVQhzZrdbgBb-5jzVGpucckRQbrH7Pfvz2MtIQdcz9fLRdmHFlsPanknhah1ZZFBJEASnEUJdD60KLyEeNpFDvG8-It8Wff0DRm2ZW-ADRGG_66QS35J4tYF6RXijTeP8OUnM0N5gx-kP-bDXeNpGpMgoQb-QxgPUvk2FGIpcHQ0hCAYu8qBLOHEaVOY_ZSG2zWiK2ZE3ACxCWmraU6KHmPXZeoze0AKF_md4iUULd_OA_HK4P80rN1SCcooOMPkusGFp8FyvoQ-CORBTYoIvbAUNlqB2ILp7kfJPwZl0eLGFKD3Wwrjwp7YFaWK8vHo6jr0bL7DzfgYNIrGicPP-VpoxewvZGKr9DAw9g6gZdSLKyHB_i77aSgyJ-blbl0qACsSiaUcASugmhLCJYOfH9__eBOeyDa5Z1FhOYxSjtyNNtlToFh5LEIRkOT_i_5r8ogzv04YNYd3_RxodQjSAMSpv0EAHV8Fw0k072m4HghNGvUzVbTBUxlLAk1V48latefzXg6YJAihOIwFMHRWybmT3iTa4lBdgmfNZB7ieI8F4QpDIeqhMvR6KRl3utzuWFd71A1q5ixty2QtDwFoy_1KE9lEK8fMJW7_QToJH_3NpeCS4wzT4HNzv85wypHU38elYDB0yeCPR_yodj-qVu5]--></g></svg>