<?xml version="1.0" encoding="us-ascii" standalone="no"?><svg xmlns="http://www.w3.org/2000/svg" xmlns:xlink="http://www.w3.org/1999/xlink" contentStyleType="text/css" height="670px" preserveAspectRatio="none" style="width:777px;height:670px;background:#FFFFFF;" version="1.1" viewBox="0 0 777 670" width="777px" zoomAndPan="magnify"><defs><filter height="1" id="b1sv6626zreuop0" width="1" x="0" y="0"><feFlood flood-color="#FFC0CB" result="flood"/><feComposite in="SourceGraphic" in2="flood" operator="over"/></filter><filter height="1" id="b1sv6626zreuop1" width="1" x="0" y="0"><feFlood flood-color="#FFFF00" result="flood"/><feComposite in="SourceGraphic" in2="flood" operator="over"/></filter></defs><g><text fill="#000000" font-family="sans-serif" font-size="14" font-weight="bold" lengthAdjust="spacing" textLength="465" x="149" y="25.1074">Keyple - keyple-card-calypso-crypto-pki-java-lib - 0.1.+ (2024-03-29)</text><rect fill="#DDDDDD" height="84.4844" id="_legend" rx="7.5" ry="7.5" style="stroke:#000000;stroke-width:1.0;" width="201" x="281" y="51.6211"/><text fill="#000000" font-family="sans-serif" font-size="14" lengthAdjust="spacing" text-decoration="underline" textLength="88" x="286" y="71.7285">Colors legend</text><text fill="#000000" font-family="sans-serif" font-size="14" lengthAdjust="spacing" textLength="4" x="378" y="71.7285">:</text><ellipse cx="291.5" cy="86.3633" fill="#000000" rx="2.5" ry="2.5" style="stroke:#000000;stroke-width:0.0;"/><text fill="#000000" font-family="sans-serif" font-size="14" lengthAdjust="spacing" text-decoration="underline" textLength="148" x="298" y="90.3496">External API references</text><text fill="#000000" font-family="sans-serif" font-size="14" lengthAdjust="spacing" textLength="4" x="450" y="90.3496">:</text><rect fill="#000000" height="3.5" style="stroke:#000000;stroke-width:0.0;" width="3.5" x="295" y="102.4844"/><text fill="#000000" filter="url(#b1sv6626zreuop0)" font-family="sans-serif" font-size="14" font-weight="bold" lengthAdjust="spacing" textLength="175" x="302" y="108.9707">Keypop Calypso Card API</text><rect fill="#000000" height="3.5" style="stroke:#000000;stroke-width:0.0;" width="3.5" x="295" y="121.1055"/><text fill="#000000" filter="url(#b1sv6626zreuop1)" font-family="sans-serif" font-size="14" lengthAdjust="spacing" textLength="79" x="302" y="127.5918">java.security</text><!--cluster pki--><g id="cluster_pki"><path d="M8.5,155.1191 L303.5,155.1191 A3.75,3.75 0 0 1 306,157.6191 L313,179.7402 L767.5,179.7402 A2.5,2.5 0 0 1 770,182.2402 L770,660.6191 A2.5,2.5 0 0 1 767.5,663.1191 L8.5,663.1191 A2.5,2.5 0 0 1 6,660.6191 L6,157.6191 A2.5,2.5 0 0 1 8.5,155.1191 " fill="#F8F9F9" style="stroke:#000000;stroke-width:1.5;"/><line style="stroke:#000000;stroke-width:1.5;" x1="6" x2="313" y1="179.7402" y2="179.7402"/><text fill="#000000" font-family="sans-serif" font-size="14" font-weight="bold" lengthAdjust="spacing" textLength="294" x="10" y="172.2266">org.eclipse.keyple.card.calypso.crypto.pki</text></g><!--class PkiExtensionService--><g id="elem_PkiExtensionService"><rect codeLine="61" fill="#E9F7EF" height="308.6953" id="PkiExtensionService" rx="2.5" ry="2.5" style="stroke:#27AE60;stroke-width:2.0;" width="732" x="22" y="192.1191"/><ellipse cx="297.75" cy="208.1191" fill="#ADD1B2" rx="11" ry="11" style="stroke:#181818;stroke-width:1.0;"/><path d="M300.5156,203.9941 Q300.6719,203.7754 300.8594,203.666 Q301.0469,203.5566 301.2656,203.5566 Q301.6406,203.5566 301.875,203.8223 Q302.1094,204.0723 302.1094,204.6816 L302.1094,206.1348 Q302.1094,206.7441 301.875,207.0098 Q301.6406,207.2754 301.2656,207.2754 Q300.9219,207.2754 300.7188,207.0723 Q300.5156,206.8848 300.4063,206.3691 Q300.3594,206.0098 300.1719,205.8223 Q299.8438,205.4473 299.2344,205.2285 Q298.625,205.0098 298,205.0098 Q297.2344,205.0098 296.5938,205.3379 Q295.9688,205.666 295.4688,206.416 Q294.9844,207.166 294.9844,208.1973 L294.9844,209.291 Q294.9844,210.5254 295.875,211.3535 Q296.7656,212.166 298.3594,212.166 Q299.2969,212.166 299.9531,211.916 Q300.3438,211.7598 300.7656,211.3223 Q301.0313,211.0566 301.1719,210.9785 Q301.3281,210.9004 301.5313,210.9004 Q301.8594,210.9004 302.1094,211.166 Q302.375,211.416 302.375,211.7598 Q302.375,212.1035 302.0313,212.5098 Q301.5313,213.0879 300.7344,213.416 Q299.6563,213.8691 298.3594,213.8691 Q296.8438,213.8691 295.6406,213.2441 Q294.6563,212.7441 293.9688,211.6816 Q293.2813,210.6035 293.2813,209.3223 L293.2813,208.166 Q293.2813,206.8379 293.8906,205.6973 Q294.5156,204.541 295.6094,203.9316 Q296.7031,203.3066 297.9375,203.3066 Q298.6719,203.3066 299.3125,203.4785 Q299.9688,203.6348 300.5156,203.9941 Z " fill="#000000"/><ellipse cx="323.25" cy="207.6191" fill="#84BE84" rx="3" ry="3" style="stroke:#038048;stroke-width:1.0;"/><text fill="#000000" font-family="sans-serif" font-size="14" font-weight="bold" lengthAdjust="spacing" textLength="30" x="329.25" y="213.916">final</text><text fill="#000000" font-family="sans-serif" font-size="14" lengthAdjust="spacing" textLength="127" x="363.25" y="213.916">PkiExtensionService</text><line style="stroke:#27AE60;stroke-width:2.0;" x1="23" x2="753" y1="224.1191" y2="224.1191"/><line style="stroke:#27AE60;stroke-width:1.0;" x1="23" x2="753" y1="232.1191" y2="232.1191"/><ellipse cx="33" cy="246.9297" fill="#84BE84" rx="3" ry="3" style="stroke:#038048;stroke-width:1.0;"/><text fill="#000000" font-family="sans-serif" font-size="14" lengthAdjust="spacing" text-decoration="underline" textLength="218" x="42" y="251.2266">PkiExtensionService getInstance ()</text><text fill="#000000" font-family="sans-serif" font-size="14" lengthAdjust="spacing" textLength="4" x="42" y="269.8477">&#160;</text><ellipse cx="33" cy="284.1719" fill="#84BE84" rx="3" ry="3" style="stroke:#038048;stroke-width:1.0;"/><text fill="#000000" font-family="sans-serif" font-size="14" lengthAdjust="spacing" textLength="126" x="42" y="288.4688">void setTestMode ()</text><text fill="#000000" font-family="sans-serif" font-size="14" lengthAdjust="spacing" textLength="4" x="42" y="307.0898">&#160;</text><ellipse cx="33" cy="321.4141" fill="#84BE84" rx="3" ry="3" style="stroke:#038048;stroke-width:1.0;"/><text fill="#000000" filter="url(#b1sv6626zreuop0)" font-family="sans-serif" font-size="14" lengthAdjust="spacing" textLength="324" x="42" y="325.7109">AsymmetricCryptoCardTransactionManagerFactory</text><text fill="#000000" font-family="sans-serif" font-size="14" lengthAdjust="spacing" textLength="378" x="370" y="325.7109">createAsymmetricCryptoCardTransactionManagerFactory ()</text><text fill="#000000" font-family="sans-serif" font-size="14" lengthAdjust="spacing" textLength="4" x="42" y="344.332">&#160;</text><ellipse cx="33" cy="358.6563" fill="#84BE84" rx="3" ry="3" style="stroke:#038048;stroke-width:1.0;"/><text fill="#000000" filter="url(#b1sv6626zreuop0)" font-family="sans-serif" font-size="14" lengthAdjust="spacing" textLength="88" x="42" y="362.9531">PcaCertificate</text><text fill="#000000" font-family="sans-serif" font-size="14" lengthAdjust="spacing" textLength="331" x="134" y="362.9531">createPcaCertificate (byte[] pcaPublicKeyReference,</text><text fill="#000000" filter="url(#b1sv6626zreuop1)" font-family="sans-serif" font-size="14" lengthAdjust="spacing" textLength="90" x="469" y="362.9531">RSAPublicKey</text><text fill="#000000" font-family="sans-serif" font-size="14" lengthAdjust="spacing" textLength="90" x="563" y="362.9531">pcaPublicKey)</text><ellipse cx="33" cy="377.2773" fill="#84BE84" rx="3" ry="3" style="stroke:#038048;stroke-width:1.0;"/><text fill="#000000" filter="url(#b1sv6626zreuop0)" font-family="sans-serif" font-size="14" lengthAdjust="spacing" textLength="88" x="42" y="381.5742">PcaCertificate</text><text fill="#000000" font-family="sans-serif" font-size="14" lengthAdjust="spacing" textLength="517" x="134" y="381.5742">createPcaCertificate (byte[] pcaPublicKeyReference, byte[] pcaPublicKeyModulus)</text><text fill="#000000" font-family="sans-serif" font-size="14" lengthAdjust="spacing" textLength="4" x="42" y="400.1953">&#160;</text><ellipse cx="33" cy="414.5195" fill="#84BE84" rx="3" ry="3" style="stroke:#038048;stroke-width:1.0;"/><text fill="#000000" filter="url(#b1sv6626zreuop0)" font-family="sans-serif" font-size="14" lengthAdjust="spacing" textLength="82" x="42" y="418.8164">CaCertificate</text><text fill="#000000" font-family="sans-serif" font-size="14" lengthAdjust="spacing" textLength="254" x="128" y="418.8164">createCaCertificate (byte[] caCertificate)</text><text fill="#000000" font-family="sans-serif" font-size="14" lengthAdjust="spacing" textLength="4" x="42" y="437.4375">&#160;</text><ellipse cx="33" cy="451.7617" fill="#84BE84" rx="3" ry="3" style="stroke:#038048;stroke-width:1.0;"/><text fill="#000000" filter="url(#b1sv6626zreuop0)" font-family="sans-serif" font-size="14" lengthAdjust="spacing" textLength="124" x="42" y="456.0586">CaCertificateParser</text><text fill="#000000" font-family="sans-serif" font-size="14" lengthAdjust="spacing" textLength="407" x="170" y="456.0586">createCaCertificateParser (CaCertificateType caCertificateType)</text><text fill="#000000" font-family="sans-serif" font-size="14" lengthAdjust="spacing" textLength="4" x="42" y="474.6797">&#160;</text><ellipse cx="33" cy="489.0039" fill="#84BE84" rx="3" ry="3" style="stroke:#038048;stroke-width:1.0;"/><text fill="#000000" filter="url(#b1sv6626zreuop0)" font-family="sans-serif" font-size="14" lengthAdjust="spacing" textLength="137" x="42" y="493.3008">CardCertificateParser</text><text fill="#000000" font-family="sans-serif" font-size="14" lengthAdjust="spacing" textLength="446" x="183" y="493.3008">createCardCertificateParser (CardCertificateType cardCertificateType)</text></g><!--class CaCertificateType--><g id="elem_CaCertificateType"><rect codeLine="78" fill="#E9F7EF" height="66.6211" id="CaCertificateType" rx="2.5" ry="2.5" style="stroke:#27AE60;stroke-width:2.0;" width="157" x="240.5" y="580.1191"/><ellipse cx="255.5" cy="596.1191" fill="#EB937F" rx="11" ry="11" style="stroke:#181818;stroke-width:1.0;"/><path d="M254.3594,596.916 L254.3594,599.416 L258.6875,599.416 L258.6875,598.4941 Q258.6875,597.8848 258.9219,597.6191 Q259.1719,597.3535 259.5469,597.3535 Q259.9219,597.3535 260.1563,597.6191 Q260.3906,597.8848 260.3906,598.4941 L260.3906,601.1191 L252.3906,601.1191 Q251.7656,601.1191 251.5,600.8848 Q251.25,600.6504 251.25,600.2598 Q251.25,599.8848 251.5156,599.6504 Q251.7813,599.416 252.3906,599.416 L252.6563,599.416 L252.6563,592.7598 L252.3906,592.7598 Q251.7656,592.7598 251.5,592.5254 Q251.25,592.291 251.25,591.9004 Q251.25,591.5254 251.5,591.291 Q251.7656,591.0566 252.3906,591.0566 L260.0156,591.0566 L260.0156,593.6504 Q260.0156,594.2598 259.7813,594.5254 Q259.5625,594.7754 259.1719,594.7754 Q258.7969,594.7754 258.5625,594.5254 Q258.3281,594.2598 258.3281,593.6504 L258.3281,592.7598 L254.3594,592.7598 L254.3594,595.2129 L255.8438,595.2129 Q255.8438,594.5566 255.9688,594.3691 Q256.2344,593.9629 256.7031,593.9629 Q257.0781,593.9629 257.3125,594.2285 Q257.5469,594.4785 257.5469,595.0879 L257.5469,597.0566 Q257.5469,597.6035 257.4219,597.791 Q257.1563,598.1816 256.7031,598.1816 Q256.2344,598.1816 255.9688,597.7754 Q255.8438,597.5879 255.8438,596.916 L254.3594,596.916 Z " fill="#000000"/><ellipse cx="274.5" cy="595.6191" fill="#84BE84" rx="3" ry="3" style="stroke:#038048;stroke-width:1.0;"/><text fill="#000000" font-family="sans-serif" font-size="14" lengthAdjust="spacing" textLength="114" x="280.5" y="601.916">CaCertificateType</text><line style="stroke:#27AE60;stroke-width:2.0;" x1="241.5" x2="396.5" y1="612.1191" y2="612.1191"/><text fill="#000000" font-family="sans-serif" font-size="14" lengthAdjust="spacing" textLength="65" x="246.5" y="631.2266">CALYPSO</text><line style="stroke:#27AE60;stroke-width:2.0;" x1="241.5" x2="396.5" y1="638.7402" y2="638.7402"/></g><!--class CardCertificateType--><g id="elem_CardCertificateType"><rect codeLine="81" fill="#E9F7EF" height="66.6211" id="CardCertificateType" rx="2.5" ry="2.5" style="stroke:#27AE60;stroke-width:2.0;" width="170" x="433" y="580.1191"/><ellipse cx="448" cy="596.1191" fill="#EB937F" rx="11" ry="11" style="stroke:#181818;stroke-width:1.0;"/><path d="M446.8594,596.916 L446.8594,599.416 L451.1875,599.416 L451.1875,598.4941 Q451.1875,597.8848 451.4219,597.6191 Q451.6719,597.3535 452.0469,597.3535 Q452.4219,597.3535 452.6563,597.6191 Q452.8906,597.8848 452.8906,598.4941 L452.8906,601.1191 L444.8906,601.1191 Q444.2656,601.1191 444,600.8848 Q443.75,600.6504 443.75,600.2598 Q443.75,599.8848 444.0156,599.6504 Q444.2813,599.416 444.8906,599.416 L445.1563,599.416 L445.1563,592.7598 L444.8906,592.7598 Q444.2656,592.7598 444,592.5254 Q443.75,592.291 443.75,591.9004 Q443.75,591.5254 444,591.291 Q444.2656,591.0566 444.8906,591.0566 L452.5156,591.0566 L452.5156,593.6504 Q452.5156,594.2598 452.2813,594.5254 Q452.0625,594.7754 451.6719,594.7754 Q451.2969,594.7754 451.0625,594.5254 Q450.8281,594.2598 450.8281,593.6504 L450.8281,592.7598 L446.8594,592.7598 L446.8594,595.2129 L448.3438,595.2129 Q448.3438,594.5566 448.4688,594.3691 Q448.7344,593.9629 449.2031,593.9629 Q449.5781,593.9629 449.8125,594.2285 Q450.0469,594.4785 450.0469,595.0879 L450.0469,597.0566 Q450.0469,597.6035 449.9219,597.791 Q449.6563,598.1816 449.2031,598.1816 Q448.7344,598.1816 448.4688,597.7754 Q448.3438,597.5879 448.3438,596.916 L446.8594,596.916 Z " fill="#000000"/><ellipse cx="467" cy="595.6191" fill="#84BE84" rx="3" ry="3" style="stroke:#038048;stroke-width:1.0;"/><text fill="#000000" font-family="sans-serif" font-size="14" lengthAdjust="spacing" textLength="127" x="473" y="601.916">CardCertificateType</text><line style="stroke:#27AE60;stroke-width:2.0;" x1="434" x2="602" y1="612.1191" y2="612.1191"/><text fill="#000000" font-family="sans-serif" font-size="14" lengthAdjust="spacing" textLength="65" x="439" y="631.2266">CALYPSO</text><line style="stroke:#27AE60;stroke-width:2.0;" x1="434" x2="602" y1="638.7402" y2="638.7402"/></g><!--link PkiExtensionService to CaCertificateType--><g id="link_PkiExtensionService_CaCertificateType"><path codeLine="88" d="M347.962,501.3871 C340.234,531.0691 334.3979,553.4828 329.0369,574.0715 " fill="none" id="PkiExtensionService-to-CaCertificateType" style="stroke:#27AE60;stroke-width:2.0;stroke-dasharray:7.0,7.0;"/><polygon fill="#27AE60" points="327.525,579.8778,333.6638,572.1762,328.7849,575.0392,325.9219,570.1603,327.525,579.8778" style="stroke:#27AE60;stroke-width:2.0;"/><polygon fill="#000000" points="342.7401,545.6033,347.8634,537.5906,342.1752,536.1096,342.7401,545.6033" style="stroke:#000000;stroke-width:1.0;"/><text fill="#000000" font-family="sans-serif" font-size="13" lengthAdjust="spacing" textLength="21" x="353" y="546.1475">use</text></g><!--link PkiExtensionService to CardCertificateType--><g id="link_PkiExtensionService_CardCertificateType"><path codeLine="89" d="M463.433,501.3871 C477.994,531.0691 489.1955,553.9024 499.2955,574.4911 " fill="none" id="PkiExtensionService-to-CardCertificateType" style="stroke:#27AE60;stroke-width:2.0;stroke-dasharray:7.0,7.0;"/><polygon fill="#27AE60" points="501.938,579.8778,501.5654,570.036,499.7359,575.3889,494.383,573.5594,501.938,579.8778" style="stroke:#27AE60;stroke-width:2.0;"/><polygon fill="#000000" points="493.2021,545.2536,491.857,535.8386,486.5799,538.4274,493.2021,545.2536" style="stroke:#000000;stroke-width:1.0;"/><text fill="#000000" font-family="sans-serif" font-size="13" lengthAdjust="spacing" textLength="21" x="500" y="546.1475">use</text></g><!--SRC=[jLPTKziw47tthzWB3uLmxK0I6iBGp3Yst3Bb8qF20zFfC8gz9BfHR8yaGpqC__tATWnnC4dxK3yazj7PSrPhQMN554S3zFKTqvWZc33FRqoVYa3_y3IMaUcBD5QH6S-P-Hzzf2Pd4yqyj8wi0zXh7ROwvc7RRFNs3Gm3KBccyGc-V87nDt99z8r-TAA4Oo8aC2aJb10WdC9CgLYUDfipjU1-n2FXHm5AouyMpGVHL7J2aIPceDCfeciWVIlPD3HZJbNJ-2V01nOYEFTVRyZT4NWdNi_hhS4jy5fUs-kimMqWnwHBrjaTSBlkm7NNu6DmRCTpMslmPnYuJjlfhi0NvrVVeTtfdRY35VHsHA3LjSddmwnMfWaZbN9T5pMZ2e8e_AJWAH9pU69g1Y4-mICAoQ8GeWVGSmrLik0wp91p5iPKq0L8XG8ZbSPe3o8He72oYiAktNCTrwibdbU8WuxT9SUrHAUgwBf7WrOjaLI8PD1hQ-jyVkJApV9TYN8ubRBWZsVCduSe9QpAsa94Jwj3MkaEEO-UtgbGVpuLKH86IsUFUCGXzMPBYjkndKDNIzvWi4Nlx4nWqEzhMPUunDaW-yeatOvU1yQCwOLUWczbqgx3HEYDjjKupccvTuSuNdUZznlvX7GwjblQl-AL32OysUwVaVBv3BnZRx3HlQGkr_hIUubMdByAn72hzJHZvTuzhqkyZTwltEMUMfgNyBfx-ZlcQUvjwtL4jdddr9RJ9iUhrcdLkUY9plNLc5oDywx8SPgtp2ZEc_3zVQueeS3lx-4qnnjwXFpIGY7bO0_FGU23LWrzb6-S1fnDz2HEOnRE-ur6rj2Z69oYXUj_4MIXZSPPCwFrgq5flglwMNUt9Fg9O2ejYLc6HKA64Mk4JX5s8Z6rqESibcWLHuQL7HdMyiYmYYF3qaV63b09-X-USyi3FwiVx3GQkX5IhZCOpbaskJ3hRYCKZyp7FAO6NtcZXLfswQPItXuyIqKLyrzgWwUepaDDq7M3lNtZBUenOW58L6EKwbAVGDNHbRBQCbqiK0dcE_dyiggE1GqbzPKskgIXBexmz5Caolg1Bv0g_AFG3nCO-jH1eTW3yxLcrQ4w1dkJLE6Fdn3xT9XCEFFrYhWfrys_rVT-Cx9VEQNeQjp-NqwcPbI_XuGdyeCwE1yxExN6bNH-HtH8XKInGReWm5u57EjzNlNAa0_zHB3LiOQIULRWfUixh7XjByM-mp3HpUjTidKxoh4lxeQZwvhezxRRur-oncTB6VcCPajT6aRTxhIiVarwkyMNqYaa4g6_8V1zPckXHVUziE-kRyVb9scey9SQeL8id8BvGtVk0CEV9bpWbFhfY2vk5UFBoD7uxgBubYsRODRKTiilpUSNuty0]--></g></svg>